<?xml version="1.0" standalone="no"?>
<!DOCTYPE svg PUBLIC "-//W3C//DTD SVG 1.1//EN" "http://www.w3.org/Graphics/SVG/1.1/DTD/svg11.dtd" >
<svg>
<metadata>
Created by FontForge 20120731 at Sat May 28 17:03:20 2016
 By www
Copyright (c) 2011 by Jos Buivenga. All rights reserved.
</metadata>
<defs>
<font id="MuseoSansW01-Rounded700" horiz-adv-x="619" >
  <font-face 
    font-family="MuseoSansW01-Rounded700"
    font-weight="400"
    font-stretch="normal"
    units-per-em="1000"
    panose-1="2 0 0 0 0 0 0 0 0 0"
    ascent="752"
    descent="-248"
    x-height="510"
    cap-height="710"
    bbox="-61 -215 1129 902"
    underline-thickness="50"
    underline-position="-100"
    unicode-range="U+000D-2122"
  />
<missing-glyph horiz-adv-x="0" 
 />
    <glyph glyph-name=".notdef" horiz-adv-x="0" 
 />
    <glyph glyph-name=".null" horiz-adv-x="0" 
 />
    <glyph glyph-name="uni000D" unicode="&#xd;" horiz-adv-x="0" 
 />
    <glyph glyph-name="space" unicode=" " horiz-adv-x="250" 
 />
    <glyph glyph-name="exclam" unicode="!" horiz-adv-x="270" 
d="M74 77q0 42 41 42h40q42 0 42 -42v-35q0 -42 -42 -42h-40q-41 0 -41 42v35zM120 205q-40 0 -42 41l-8 421q0 43 41 43h47q43 0 41 -43l-8 -421q0 -41 -42 -41h-29z" />
    <glyph glyph-name="quotedbl" unicode="&#x22;" horiz-adv-x="354" 
d="M91 500q-41 0 -41 41v140q0 42 41 42h11q42 0 42 -42v-140q0 -41 -42 -41h-11zM252 500q-42 0 -42 41v140q0 42 42 42h11q41 0 41 -42v-140q0 -41 -41 -41h-11z" />
    <glyph glyph-name="numbersign" unicode="#" horiz-adv-x="696" 
d="M403 278l25 140h-137l-24 -140h136zM149 187h-73q-46 0 -38 44l2 10q4 37 44 37h81l25 140h-73q-21 0 -31 12t-7 32l2 10q6 38 44 38h80l28 162q8 38 46 38h17q22 0 32 -12t6 -33l-27 -155h136l29 162q6 38 45 38h18q22 0 31.5 -12t6.5 -33l-28 -155h75q22 0 32 -12
t6 -33l-1 -9q-6 -38 -45 -38h-82l-25 -140h74q44 0 38 -44l-2 -10q-6 -37 -45 -37h-80l-26 -149q-6 -38 -45 -38h-18q-22 0 -32 12t-6 33l25 142h-137l-25 -149q-8 -38 -46 -38h-18q-21 0 -31 12t-7 33z" />
    <glyph glyph-name="dollar" unicode="$" horiz-adv-x="549" 
d="M63 59q-16 11 -17 26.5t10 31.5l22 31q23 32 58 9q23 -16 59.5 -33t83.5 -17q20 0 39 5.5t33.5 16t23 26.5t8.5 38q0 30 -25 50.5t-62.5 38.5t-81.5 36.5t-81.5 44.5t-62.5 62.5t-25 90.5q0 39 14 72.5t38.5 60t59 44t76.5 24.5v53q0 41 40 41h7q39 0 39 -35v-57
q52 -4 88.5 -20t56.5 -30q17 -10 19 -24.5t-7 -31.5l-17 -34q-19 -34 -57 -13q-20 12 -51 24.5t-69 12.5q-45 0 -76.5 -23.5t-31.5 -61.5q0 -30 25 -49.5t62.5 -37t81.5 -35.5t81.5 -43.5t62.5 -63t25 -93.5q0 -38 -13 -72.5t-38 -62t-60.5 -46t-81.5 -24.5v-50
q0 -42 -39 -42h-7q-40 0 -40 35v57q-31 3 -57 11t-47.5 17.5t-38 20t-27.5 19.5z" />
    <glyph glyph-name="percent" unicode="%" horiz-adv-x="792" 
d="M524 146q0 -28 19 -47t47 -19t47.5 19t19.5 47q0 27 -19.5 46.5t-47.5 19.5t-47 -19.5t-19 -46.5zM427 145q0 32 12.5 61t34.5 50.5t52 34t64 12.5t63.5 -12.5t51.5 -34t35 -50.5t13 -61q0 -33 -13 -61.5t-35 -49.5t-51.5 -33.5t-63.5 -12.5t-64 12.5t-52 33.5
t-34.5 49.5t-12.5 61.5zM202 498q28 0 47.5 19t19.5 47q0 27 -19.5 46.5t-47.5 19.5t-47 -19.5t-19 -46.5q0 -28 19 -47t47 -19zM590 685q19 25 51 25h20q27 0 34.5 -15t-9.5 -36l-486 -634q-19 -25 -51 -25h-21q-26 0 -33.5 15t9.5 36zM202 406q-34 0 -64 12.5t-52 33.5
t-34.5 50t-12.5 62q0 32 12.5 61t34.5 50.5t52 34t64 12.5t63.5 -12.5t51.5 -34t35 -50.5t13 -61q0 -33 -13 -62t-35 -50t-51.5 -33.5t-63.5 -12.5z" />
    <glyph glyph-name="ampersand" unicode="&#x26;" horiz-adv-x="652" 
d="M171 209q0 -43 33 -73t88 -30q61 0 95 32.5t34 97.5v77h-120q-60 0 -95 -26t-35 -78zM39 201q0 29 8.5 56.5t24 51t38 41.5t50.5 28v2q-26 11 -45 32q-17 18 -31 48t-14 75q0 47 17.5 82t48 58.5t71.5 35t87 11.5h42q42 0 42 -42v-25q0 -41 -42 -41h-33q-49 0 -76 -28
t-27 -67q0 -15 5 -32t17 -30.5t33 -22.5t53 -9h113v51q0 41 42 41h43q42 0 42 -34v-58h50q42 0 42 -42v-28q0 -42 -42 -42h-50v-84q0 -54 -17.5 -98.5t-50.5 -76t-80.5 -49t-107.5 -17.5q-57 0 -104 16.5t-80 45t-51 67.5t-18 84z" />
    <glyph glyph-name="quotesingle" unicode="'" horiz-adv-x="194" 
d="M91 514q-42 0 -42 42v125q0 42 42 42h13q41 0 41 -42v-125q0 -42 -41 -42h-13z" />
    <glyph glyph-name="parenleft" unicode="(" horiz-adv-x="285" 
d="M147 -70q-49 88 -76.5 193t-27.5 220q0 100 26 192.5t75 177.5q9 16 21 22t29 6h19q24 0 32 -13t-3 -36q-42 -83 -64 -170.5t-22 -179.5q0 -100 22 -197t67 -191q10 -22 2 -35.5t-32 -13.5h-21q-33 0 -47 25z" />
    <glyph glyph-name="parenright" unicode=")" horiz-adv-x="285" 
d="M40 -44q88 188 88 386q0 92 -22 179.5t-64 170.5q-11 23 -4 36t31 13h21q17 0 29 -6t21 -22q49 -85 75.5 -177.5t26.5 -192.5q0 -114 -27.5 -218t-75.5 -192q-15 -28 -49 -28h-20q-25 0 -32.5 14t2.5 37z" />
    <glyph glyph-name="asterisk" unicode="*" horiz-adv-x="469" 
d="M108 362q-35 26 -7 57l55 68v2l-83 22q-42 9 -30 50l8 25q7 20 20 26.5t32 -1.5l82 -32l-5 87q-2 21 8.5 32.5t31.5 11.5h28q20 0 30.5 -11t8.5 -32l-5 -88l81 32q20 8 34 2t20 -26l8 -25q13 -41 -28 -50l-86 -23v-2l55 -66q29 -32 -6 -59l-21 -15q-35 -27 -57 11l-47 73
h-2l-46 -72q-23 -38 -58 -12z" />
    <glyph glyph-name="plus" unicode="+" 
d="M84 236q-42 0 -42 42v15q0 42 42 42h174v195q0 42 42 42h20q41 0 41 -42v-195h175q41 0 41 -42v-15q0 -42 -41 -42h-175v-194q0 -42 -41 -42h-20q-42 0 -42 42v194h-174z" />
    <glyph glyph-name="comma" unicode="," horiz-adv-x="244" 
d="M70 94q10 35 47 35h38q23 0 32 -13.5t0 -35.5l-69 -167q-13 -32 -48 -32h-13q-23 0 -32.5 12.5t-3.5 34.5z" />
    <glyph glyph-name="hyphen" unicode="-" horiz-adv-x="417" 
d="M100 230q-42 0 -42 42v28q0 41 42 41h217q42 0 42 -41v-28q0 -42 -42 -42h-217z" />
    <glyph glyph-name="period" unicode="." horiz-adv-x="238" 
d="M55 87q0 41 42 41h44q42 0 42 -41v-45q0 -42 -42 -42h-44q-42 0 -42 42v45z" />
    <glyph glyph-name="slash" unicode="/" horiz-adv-x="406" 
d="M265 712q12 34 48 34h22q23 0 32.5 -12.5t2.5 -34.5l-229 -707q-10 -34 -47 -34h-23q-23 0 -32.5 12.5t-2.5 34.5z" />
    <glyph glyph-name="zero" unicode="0" horiz-adv-x="624" 
d="M312 106q36 0 60.5 19.5t38.5 53t20 79t6 98.5q0 52 -6 97t-20 78.5t-38.5 52.5t-60.5 19t-60.5 -19t-38.5 -52.5t-20 -78.5t-6 -97q0 -53 6 -98.5t20 -79t38.5 -53t60.5 -19.5zM312 -12q-73 0 -122 29t-79 78.5t-43 116.5t-13 144q0 76 13 143t43 116.5t79 78t122 28.5
t122.5 -28.5t79.5 -78t43 -116.5t13 -143q0 -77 -13 -144t-43 -116.5t-79.5 -78.5t-122.5 -29z" />
    <glyph glyph-name="one" unicode="1" horiz-adv-x="492" 
d="M43 70q0 41 41 41h113v394v33q0 8 1 15h-2q-3 -6 -7 -12q-4 -5 -8.5 -11.5t-11.5 -12.5l-31 -30q-31 -28 -58 2l-19 20q-29 29 1 59l126 121q12 11 24 16t28 5h42q41 0 41 -42v-557h112q42 0 42 -41v-28q0 -42 -42 -42h-351q-41 0 -41 42v28z" />
    <glyph glyph-name="two" unicode="2" horiz-adv-x="567" 
d="M43 63q0 64 24.5 111.5t61.5 84.5t80 66t80 56.5t61.5 56t24.5 63.5q0 47 -31.5 73t-76.5 26q-19 0 -35.5 -5t-29.5 -13t-23 -17.5t-17 -17.5q-14 -14 -29 -18t-30 9l-27 21q-33 25 -11 56q12 15 30 34t44.5 35t60.5 27t78 11q46 0 88 -14t74 -41t50.5 -66t18.5 -89
q0 -57 -23.5 -99.5t-59 -76t-77 -60.5t-77.5 -52.5t-61 -52t-26 -60.5h293q42 0 42 -41v-28q0 -42 -42 -42h-390q-20 0 -32.5 10.5t-12.5 31.5v21z" />
    <glyph glyph-name="three" unicode="3" horiz-adv-x="560" 
d="M54 57q-16 12 -17.5 27t9.5 31l20 31q11 17 25.5 18.5t31.5 -9.5q20 -14 52.5 -29.5t75.5 -15.5q56 0 92 30t36 76q0 28 -12 49t-33 34.5t-48.5 20t-58.5 6.5h-15q-32 0 -46 29l-4 8q-14 28 9 54l109 129q10 12 19.5 22t16.5 17l15 15v2q-6 -1 -16 -2q-8 -1 -20 -1h-27
h-171q-41 0 -41 41v28q0 42 41 42h350q42 0 42 -41v-11q0 -16 -4 -28t-15 -23l-155 -179q37 -5 72 -21t62 -42t43.5 -62t16.5 -82q0 -45 -16.5 -87.5t-48.5 -74.5t-78.5 -51.5t-106.5 -19.5q-37 0 -69 7t-57.5 17.5t-45.5 22.5t-33 22z" />
    <glyph glyph-name="four" unicode="4" horiz-adv-x="607" 
d="M352 290v220q0 13 0.5 26t1.5 24q1 12 3 24h-2l-10 -22q-5 -10 -11.5 -21.5t-13.5 -21.5l-164 -227v-2h196zM61 183q-41 0 -41 41v10q0 29 15 51l274 398q17 27 50 27h78q42 0 42 -42v-378h50q42 0 42 -41v-25q0 -41 -34 -41h-58v-141q0 -42 -42 -42h-44q-41 0 -41 42
v141h-291z" />
    <glyph glyph-name="five" unicode="5" horiz-adv-x="560" 
d="M63 59q-15 11 -16 26.5t10 30.5l20 30q21 33 57 8q17 -14 46.5 -29t71.5 -15q26 0 50 8.5t42.5 24t29.5 38t11 50.5q0 56 -40.5 89.5t-101.5 33.5q-27 0 -48 -6.5t-34 -11.5q-15 -5 -28.5 -6t-27.5 4l-9 3q-34 13 -31 50l26 283q3 40 43 40h292q42 0 42 -42v-28
q0 -41 -42 -41h-220l-11 -117q-2 -15 -3 -24q-1 -5 -2 -9h2q10 4 22 8q11 3 24 5.5t30 2.5q59 0 105.5 -18.5t78.5 -50t49 -74t17 -90.5q0 -53 -19.5 -97.5t-53.5 -77t-81 -51t-102 -18.5q-37 0 -68 7t-56 18t-43.5 23t-31.5 23z" />
    <glyph glyph-name="six" unicode="6" horiz-adv-x="599" 
d="M183 274q0 -27 10.5 -56.5t29 -54.5t44.5 -41t56 -16q49 0 78 34t29 87q0 27 -8.5 50.5t-25 41t-42.5 28t-60 10.5q-48 0 -79.5 -22.5t-31.5 -60.5zM49 321q0 72 20.5 144t61 129t102 92.5t143.5 35.5q32 0 61 -5t46 -11q39 -12 25 -53l-12 -33q-7 -21 -19 -26t-30 -1
q-13 4 -28 7t-36 3q-43 0 -76 -16.5t-56 -43.5t-37.5 -62.5t-21.5 -73.5h2q17 22 54 39t89 17q51 0 91.5 -18t69 -49.5t44 -73t15.5 -87.5q0 -50 -16.5 -95t-47.5 -79t-74 -53.5t-96 -19.5q-56 0 -105.5 22.5t-87 65.5t-59.5 105t-22 140z" />
    <glyph glyph-name="seven" unicode="7" horiz-adv-x="527" 
d="M334 534q8 17 15.5 29l12.5 20q6 10 12 16v2q-4 -1 -10 -1q-5 -1 -14 -1h-22h-262q-41 0 -41 41v28q0 42 41 42h405q42 0 42 -41v-22q0 -14 -2.5 -26t-9.5 -25l-284 -566q-16 -30 -50 -30h-45q-24 0 -32.5 13.5t2.5 35.5z" />
    <glyph glyph-name="eight" unicode="8" horiz-adv-x="605" 
d="M177 215q0 -26 10 -47t27 -36t40 -23.5t49 -8.5q24 0 45.5 7.5t38 20.5t26 31.5t9.5 40.5q0 25 -13.5 43t-37 32.5t-56 28.5t-71.5 31q-7 -6 -18.5 -16.5t-22 -25.5t-18.5 -34.5t-8 -43.5zM364 397q4 6 12 17t15.5 26t13.5 34t6 41q0 46 -29 70.5t-78 24.5
q-51 0 -76.5 -24t-25.5 -59q0 -26 13.5 -44.5t36 -33t51.5 -27t61 -25.5zM48 201q0 39 14 71t32 55.5t36 38.5t27 21q-36 26 -58.5 60t-22.5 82q0 36 14 70.5t42 62t70.5 44t100.5 16.5q50 0 93 -13.5t74 -38.5t48.5 -60.5t17.5 -79.5q0 -34 -10.5 -64t-24 -53t-26.5 -39
t-19 -22q43 -26 70.5 -63t27.5 -91q0 -40 -17 -78t-49.5 -67t-79 -47t-106.5 -18q-58 0 -105 17t-80 46t-51 67.5t-18 82.5z" />
    <glyph glyph-name="nine" unicode="9" horiz-adv-x="599" 
d="M305 352q48 0 79.5 23t31.5 61q0 27 -10.5 56t-29 54t-44.5 41t-56 16q-49 0 -77.5 -33.5t-28.5 -87.5q0 -26 8 -49.5t25 -41.5t42 -28.5t60 -10.5zM103 90q7 21 19 25.5t30 1.5q14 -4 28.5 -7.5t35.5 -3.5q43 0 76 16.5t56 44t37.5 63t21.5 73.5h-2q-19 -24 -58 -40.5
t-87 -16.5q-49 0 -89 18.5t-68.5 50.5t-44.5 74.5t-16 89.5q0 50 16.5 94t47.5 77t73.5 52.5t95.5 19.5q56 0 106 -22.5t87.5 -65.5t59.5 -105t22 -140q0 -72 -20 -143.5t-61 -129t-102.5 -93t-143.5 -35.5q-32 0 -61 5t-46 11q-39 12 -25 52z" />
    <glyph glyph-name="colon" unicode=":" horiz-adv-x="245" 
d="M60 85q0 42 41 42h43q42 0 42 -42v-43q0 -42 -42 -42h-43q-41 0 -41 42v43zM101 383q-41 0 -41 41v44q0 42 41 42h43q42 0 42 -42v-44q0 -41 -42 -41h-43z" />
    <glyph glyph-name="semicolon" unicode=";" horiz-adv-x="276" 
d="M79 93q9 36 46 36h38q24 0 33 -13t0 -35l-61 -167q-11 -33 -48 -33h-14q-23 0 -32 12.5t-4 33.5zM130 381q-41 0 -41 42v45q0 42 41 42h41q42 0 42 -42v-45q0 -42 -42 -42h-41z" />
    <glyph glyph-name="less" unicode="&#x3c;" 
d="M87 231q-31 13 -31 49v12q0 35 31 49l401 178q22 10 35.5 1t13.5 -32v-23q0 -35 -33 -48l-314 -130v-2l314 -130q33 -14 33 -48v-23q0 -24 -13.5 -32.5t-35.5 0.5z" />
    <glyph glyph-name="equal" unicode="=" 
d="M107 134q-41 0 -41 41v15q0 42 41 42h405q42 0 42 -42v-15q0 -41 -42 -41h-405zM107 339q-41 0 -41 42v15q0 41 41 41h405q42 0 42 -41v-15q0 -42 -42 -42h-405z" />
    <glyph glyph-name="greater" unicode="&#x3e;" 
d="M83 107q0 35 32 48l314 130v2l-314 130q-32 13 -32 48v23q0 23 13 32t35 -1l401 -178q32 -15 32 -49v-12q0 -36 -32 -49l-401 -178q-22 -10 -35 -1t-13 32v23z" />
    <glyph glyph-name="question" unicode="?" horiz-adv-x="469" 
d="M129 77q0 42 42 42h40q41 0 41 -42v-35q0 -42 -41 -42h-40q-42 0 -42 42v35zM171 205q-42 0 -42 41v16q0 32 12 56.5t30.5 45t40 38.5t40 36.5t30.5 39.5t12 46q0 35 -28 59t-69 24q-23 0 -41.5 -6.5t-32.5 -13.5q-17 -9 -33 -8t-27 18l-17 25q-12 17 -11 31t18 25
q23 15 62 30.5t93 15.5q42 0 81.5 -13t70 -37t49 -59t18.5 -79q0 -39 -12 -68.5t-30.5 -52.5t-40 -42.5t-41 -38t-33.5 -38.5t-17 -45l-2 -17q-4 -16 -13 -22.5t-27 -6.5h-40z" />
    <glyph glyph-name="at" unicode="@" horiz-adv-x="810" 
d="M405 243q0 -41 26 -69.5t71 -28.5h76v196h-74q-46 0 -72.5 -29t-26.5 -69zM46 240q0 78 29 146t80 118.5t119.5 79.5t148.5 29q76 0 129 -18t85 -48t46.5 -69.5t14.5 -82.5v-250h31q41 0 41 -41v-8q0 -42 -41 -42h-235q-51 0 -90.5 15.5t-67.5 41.5t-42.5 59.5
t-14.5 69.5t14.5 69t42 58.5t67.5 40.5t91 15h84q-1 39 -43 63.5t-108 24.5q-54 0 -101 -22.5t-81 -60t-53.5 -86.5t-19.5 -102q0 -50 16 -95.5t46 -81t72.5 -59t96.5 -30.5q20 -3 30 -13t10 -30v-16q0 -20 -11 -31t-32 -9q-80 7 -145 37.5t-111.5 79.5t-72 112.5
t-25.5 135.5z" />
    <glyph glyph-name="A" unicode="A" horiz-adv-x="634" 
d="M409 287l-63 190q-5 15 -10 34t-9 36q-5 19 -9 40h-2q-6 -21 -10 -40q-5 -17 -9 -36t-9 -34l-64 -190h185zM238 676q12 34 47 34h64q37 0 47 -34l222 -628q8 -22 -1.5 -35t-32.5 -13h-46q-37 0 -47 34l-50 148h-249l-49 -147q-10 -35 -47 -35h-46q-23 0 -32.5 13t-1.5 35
z" />
    <glyph glyph-name="B" unicode="B" horiz-adv-x="624" 
d="M348 111q50 0 76.5 29t26.5 74t-27 73.5t-76 28.5h-138v-205h138zM336 420q42 0 64.5 26.5t22.5 64.5t-22.5 63t-67.5 25h-123v-179h126zM82 668q0 42 41 42h212q48 0 88.5 -12t69.5 -35.5t45.5 -57.5t16.5 -78q0 -50 -22.5 -90t-63.5 -62v-2q29 -9 50.5 -26t35.5 -39.5
t21 -48.5t7 -53q0 -53 -19.5 -92t-53.5 -64.5t-78.5 -37.5t-93.5 -12h-215q-41 0 -41 42v626z" />
    <glyph glyph-name="C" unicode="C" horiz-adv-x="704" 
d="M40 358q0 77 27 143.5t75.5 115.5t115.5 77t148 28q43 0 79.5 -7.5t65.5 -18t51 -23t36 -22.5q30 -23 8 -58l-18 -29q-20 -33 -57 -10q-23 15 -64 32.5t-96 17.5q-58 0 -102.5 -19.5t-74.5 -53t-45.5 -78t-15.5 -93.5q0 -50 16 -96t46.5 -81t75 -56t101.5 -21
q30 0 56.5 6.5t48.5 15.5t39.5 20t29.5 20q35 26 58 -7l20 -27q24 -32 -6 -58q-15 -12 -38.5 -27.5t-55 -29t-71 -22.5t-86.5 -9q-84 0 -151.5 28.5t-115.5 78t-74 117.5t-26 146z" />
    <glyph glyph-name="D" unicode="D" horiz-adv-x="728" 
d="M317 111q108 0 172 62.5t64 182.5q0 59 -17 104.5t-48 76t-74.5 46.5t-96.5 16h-107v-488h107zM82 668q0 42 41 42h201q82 0 149 -24t114 -69t73 -111t26 -150t-26 -150t-73 -112t-114 -70t-149 -24h-201q-41 0 -41 42v626z" />
    <glyph glyph-name="E" unicode="E" horiz-adv-x="557" 
d="M82 668q0 42 41 42h342q42 0 42 -42v-28q0 -41 -42 -41h-255v-186h198q42 0 42 -41v-28q0 -42 -42 -42h-198v-191h271q42 0 42 -41v-28q0 -42 -42 -42h-358q-41 0 -41 42v626z" />
    <glyph glyph-name="F" unicode="F" horiz-adv-x="512" 
d="M82 668q0 42 41 42h325q42 0 42 -42v-28q0 -41 -42 -41h-238v-201h194q42 0 42 -41v-28q0 -42 -42 -42h-194v-245q0 -42 -41 -42h-46q-41 0 -41 42v626z" />
    <glyph glyph-name="G" unicode="G" horiz-adv-x="754" 
d="M40 352q0 79 27.5 147t76.5 117.5t116 77.5t147 28q44 0 81.5 -7t67 -17.5t51 -21.5t32.5 -19q31 -24 9 -58l-18 -28q-11 -17 -25 -19.5t-33 8.5q-23 14 -62 29t-96 15q-58 0 -103 -19.5t-75.5 -53t-46.5 -78.5t-16 -95q0 -56 18.5 -102.5t50.5 -79.5t75 -51.5t93 -18.5
q45 0 78.5 12t56.5 27q26 17 45 39v79h-68q-42 0 -42 42v27q0 42 42 42h142q41 0 41 -42v-290q0 -42 -41 -42h-25q-20 0 -30.5 9.5t-10.5 24.5v17v12q0 3 1 5h-2q-22 -22 -53 -40q-26 -15 -65 -27.5t-90 -12.5q-71 0 -134 26.5t-111 74.5t-76 115t-28 148z" />
    <glyph glyph-name="H" unicode="H" horiz-adv-x="745" 
d="M82 668q0 42 41 42h46q41 0 41 -42v-259h325v259q0 42 42 42h45q41 0 41 -42v-626q0 -42 -41 -42h-45q-42 0 -42 42v256h-325v-256q0 -42 -41 -42h-46q-41 0 -41 42v626z" />
    <glyph glyph-name="I" unicode="I" horiz-adv-x="292" 
d="M82 668q0 42 41 42h46q41 0 41 -42v-626q0 -42 -41 -42h-46q-41 0 -41 42v626z" />
    <glyph glyph-name="J" unicode="J" horiz-adv-x="535" 
d="M19 210q0 41 41 41h47q20 0 29 -9t11 -31q3 -43 24.5 -74t68.5 -31q37 0 64.5 24.5t27.5 81.5v387h-141q-42 0 -42 41v28q0 42 42 42h228q42 0 42 -42v-458q0 -58 -19 -100t-50.5 -69t-71 -40t-80.5 -13t-81 13.5t-71 40.5t-50 69t-19 99z" />
    <glyph glyph-name="K" unicode="K" horiz-adv-x="628" 
d="M82 668q0 42 41 42h46q41 0 41 -42v-247h93l150 260q16 29 49 29h49q25 0 33 -14.5t-4 -35.5l-172 -288v-2l185 -320q13 -22 4.5 -36t-33.5 -14h-55q-33 0 -49 29l-157 281h-93v-268q0 -42 -41 -42h-46q-41 0 -41 42v626z" />
    <glyph glyph-name="L" unicode="L" horiz-adv-x="521" 
d="M82 668q0 42 41 42h46q41 0 41 -42v-557h265q42 0 42 -41v-28q0 -42 -42 -42h-352q-41 0 -41 42v626z" />
    <glyph glyph-name="M" unicode="M" horiz-adv-x="853" 
d="M110 670q5 40 43 40h63q35 0 47 -34l127 -317q6 -16 12.5 -34t11.5 -34l12 -36h2q5 18 11 36q5 16 11.5 34t12.5 34l127 317q12 34 48 34h62q40 0 43 -40l51 -627q3 -43 -40 -43h-45q-40 0 -43 40l-27 357q-2 17 -2 36.5v36.5q0 19 1 37h-2q-7 -21 -13 -40
q-6 -17 -12.5 -36t-12.5 -34l-103 -242q-12 -33 -47 -33h-42q-36 0 -48 33l-102 242q-6 15 -13 34.5t-13 36.5q-7 20 -13 40h-2q1 -19 1 -38q0 -17 -0.5 -36.5t-1.5 -36.5l-27 -357q-3 -40 -43 -40h-45q-43 0 -40 43z" />
    <glyph glyph-name="N" unicode="N" horiz-adv-x="743" 
d="M82 668q0 42 41 42h54q35 0 50 -28l252 -382q10 -16 21 -35t19 -36q10 -19 19 -39h2q-2 20 -4 39q-2 17 -2.5 36t-0.5 35v368q0 42 42 42h45q42 0 42 -42v-626q0 -42 -42 -42h-54q-34 0 -49 28l-253 381q-10 16 -20.5 35t-18.5 36q-11 19 -20 39h-2q1 -20 3 -39
q2 -17 3 -36t1 -35v-367q0 -42 -41 -42h-46q-41 0 -41 42v626z" />
    <glyph glyph-name="O" unicode="O" horiz-adv-x="814" 
d="M173 360q0 -54 17.5 -100.5t48.5 -80.5t74 -53.5t94 -19.5t94 19.5t74 53.5t48.5 80.5t17.5 100.5q0 52 -17.5 96.5t-48.5 77.5t-74 51.5t-94 18.5t-94 -18.5t-74 -51.5t-48.5 -77.5t-17.5 -96.5zM40 360q0 76 27 142t76 115t116 77t148 28t148 -28t116 -77t76 -115
t27 -142q0 -78 -27 -146t-76 -118.5t-116 -79t-148 -28.5t-148 28.5t-116 79t-76 118.5t-27 146z" />
    <glyph glyph-name="P" unicode="P" horiz-adv-x="604" 
d="M331 357q57 0 88 33t31 89q0 55 -30.5 87.5t-86.5 32.5h-123v-242h121zM82 668q0 42 41 42h232q50 0 91.5 -16.5t71.5 -47t46.5 -73t16.5 -94.5t-16.5 -95t-46.5 -74t-71.5 -48t-91.5 -17h-145v-203q0 -42 -41 -42h-46q-41 0 -41 42v626z" />
    <glyph glyph-name="Q" unicode="Q" horiz-adv-x="814" 
d="M173 359q0 -54 17.5 -100t49 -80t74.5 -53.5t93 -19.5q33 0 65.5 9.5t58.5 28.5l-49 47q-14 13 -15.5 28t12.5 30l18 19q28 32 55 5l50 -51q19 29 29 64t10 73q0 52 -18 97t-49.5 78t-74 51.5t-92.5 18.5t-93 -18.5t-74.5 -51.5t-49 -78t-17.5 -97zM40 359q0 76 27 142.5
t76 115.5t116.5 77t147.5 28q81 0 148 -28t116 -77t76 -115.5t27 -142.5q0 -65 -21 -121.5t-57 -103.5l48 -45q32 -27 4 -59l-18 -19q-29 -30 -55 -4l-51 51q-45 -34 -99.5 -52t-117.5 -18q-81 0 -148 29t-116 79t-76 117.5t-27 145.5z" />
    <glyph glyph-name="R" unicode="R" horiz-adv-x="626" 
d="M326 377q52 0 82 30t30 83q0 34 -13.5 59.5t-42.5 37.5q-13 6 -30.5 9t-46.5 3h-95v-222h116zM82 668q0 42 41 42h192q53 0 82.5 -4.5t52.5 -14.5q54 -23 86.5 -72.5t32.5 -121.5q0 -32 -8 -62t-23 -55.5t-37 -45.5t-50 -31v-2l6 -9q3 -5 7.5 -11.5t9.5 -16.5l117 -214
q13 -22 4.5 -36t-33.5 -14h-54q-33 0 -49 29l-125 236h-124v-223q0 -42 -41 -42h-46q-41 0 -41 42v626z" />
    <glyph glyph-name="S" unicode="S" horiz-adv-x="549" 
d="M57 60q-12 11 -16.5 24.5t10.5 33.5l22 32q12 17 25.5 18.5t32.5 -9.5l22.5 -15t32 -17t41 -14t48.5 -6q50 0 78 22.5t28 58.5q0 34 -24.5 56t-61.5 40t-79.5 36t-79.5 43t-61.5 61.5t-24.5 91.5q0 47 18.5 85t50.5 65t75.5 41.5t94.5 14.5q31 0 59.5 -5.5t52 -13.5
t42 -17.5t29.5 -17.5q32 -23 13 -57l-18 -33q-11 -22 -26 -22t-31 8q-22 13 -51.5 26t-71.5 13q-50 0 -79 -22t-29 -58q0 -33 24.5 -54.5t61.5 -38.5t79.5 -34.5t79.5 -42.5t61.5 -62t24.5 -93q0 -43 -16 -81.5t-46 -67t-73.5 -45t-99.5 -16.5q-38 0 -72 7.5t-62 18.5
t-49.5 23.5t-34.5 22.5z" />
    <glyph glyph-name="T" unicode="T" horiz-adv-x="605" 
d="M239 599h-191q-42 0 -42 41v28q0 42 42 42h510q41 0 41 -42v-28q0 -41 -41 -41h-191v-557q0 -42 -42 -42h-45q-41 0 -41 42v557z" />
    <glyph glyph-name="U" unicode="U" horiz-adv-x="719" 
d="M74 668q0 42 41 42h45q42 0 42 -42v-412q0 -72 42.5 -111t114.5 -39t115 39t43 111v412q0 42 41 42h46q41 0 41 -42v-413q0 -60 -20.5 -109t-58 -84t-90 -54.5t-116.5 -19.5q-65 0 -117.5 19.5t-90 54.5t-58 84t-20.5 109v413z" />
    <glyph glyph-name="V" unicode="V" horiz-adv-x="638" 
d="M12 662q-8 22 1.5 35t32.5 13h53q37 0 47 -35l145 -428q5 -16 9.5 -33.5t8.5 -33.5q4 -18 9 -37h2q4 19 8 37q4 16 9 33.5t10 33.5l147 428q9 35 46 35h51q23 0 32.5 -13t1.5 -35l-227 -629q-11 -33 -47 -33h-64q-36 0 -47 33z" />
    <glyph glyph-name="W" unicode="W" horiz-adv-x="960" 
d="M35 664q-5 21 4 33.5t32 12.5h50q36 0 45 -37l103 -454q3 -15 5 -28.5t4 -24.5q2 -12 2 -22h2q1 10 3 22q3 22 12 53l118 455q10 36 47 36h34q37 0 45 -36l117 -455q4 -16 7 -29t5 -24q2 -12 3 -22h2q1 10 3 22q2 11 3.5 24.5t5.5 28.5l109 454q7 37 46 37h47
q23 0 32.5 -12.5t4.5 -33.5l-163 -629q-10 -35 -47 -35h-71q-37 0 -46 36l-101 384q-9 35 -14 64q-3 15 -5 29h-3q-2 -14 -5 -29q-2 -14 -5.5 -30.5t-7.5 -33.5l-102 -384q-9 -36 -46 -36h-72q-37 0 -46 36z" />
    <glyph glyph-name="X" unicode="X" horiz-adv-x="608" 
d="M226 360l-182 300q-13 21 -5 35.5t33 14.5h56q33 0 49 -29l82 -145q8 -16 16 -31t14 -28q7 -15 14 -28h2q6 13 13 28q6 12 14 27.5t17 31.5l83 145q16 29 49 29h56q25 0 33 -14.5t-5 -35.5l-183 -300l190 -310q14 -22 6 -36t-34 -14h-52q-33 0 -49 29l-95 162
q-9 15 -17 30t-14 27q-7 14 -13 27h-2q-6 -13 -13 -27q-6 -12 -14 -27l-16 -30l-94 -162q-16 -29 -49 -29h-51q-26 0 -34.5 14t5.5 36z" />
    <glyph glyph-name="Y" unicode="Y" horiz-adv-x="580" 
d="M226 297l-208 363q-13 21 -4.5 35.5t32.5 14.5h56q33 0 48 -31l96 -178q8 -17 16 -33.5t14 -30.5q7 -16 13 -31h2q6 15 13 31q6 14 14 30.5t16 33.5l96 178q15 31 48 31h56q25 0 33 -14.5t-4 -35.5l-209 -363v-255q0 -42 -41 -42h-45q-42 0 -42 42v255z" />
    <glyph glyph-name="Z" unicode="Z" horiz-adv-x="601" 
d="M31 54q0 29 17 53l298 428q23 32 36 47q8 10 16 17v2q-6 -1 -14 -1q-7 -1 -17 -1h-22h-256q-42 0 -42 41v28q0 42 42 42h430q41 0 41 -41v-12q0 -16 -3.5 -28t-12.5 -25l-299 -429q-11 -16 -20.5 -27.5t-16.5 -19.5q-9 -10 -15 -17v-2q6 0 14 1q7 0 16.5 0.5t22.5 0.5
h277q42 0 42 -41v-28q0 -42 -42 -42h-450q-42 0 -42 42v12z" />
    <glyph glyph-name="bracketleft" unicode="[" horiz-adv-x="303" 
d="M72 700q0 41 42 41h114q42 0 42 -41v-9q0 -42 -39 -42h-50v-652h47q42 0 42 -42v-8q0 -42 -42 -42h-114q-42 0 -42 42v753z" />
    <glyph glyph-name="backslash" unicode="\" horiz-adv-x="406" 
d="M36 699q-7 22 2.5 34.5t32.5 12.5h22q36 0 48 -34l228 -707q8 -22 -1.5 -34.5t-32.5 -12.5h-23q-36 0 -48 34z" />
    <glyph glyph-name="bracketright" unicode="]" horiz-adv-x="303" 
d="M34 -45q0 42 41 42h48v652h-48q-41 0 -41 42v9q0 41 41 41h115q41 0 41 -41v-753q0 -42 -41 -42h-115q-41 0 -41 42v8z" />
    <glyph glyph-name="asciicircum" unicode="^" 
d="M118 245q-24 0 -33 13.5t0 34.5l167 385q13 32 48 32h11q36 0 49 -32l166 -385q9 -21 0.5 -34.5t-32.5 -13.5h-22q-35 0 -48 33l-118 298l-119 -298q-11 -33 -48 -33h-21z" />
    <glyph glyph-name="underscore" unicode="_" horiz-adv-x="564" 
d="M1 -42q0 42 42 42h478q41 0 41 -42v-15q0 -41 -41 -41h-478q-42 0 -42 41v15z" />
    <glyph glyph-name="grave" unicode="`" horiz-adv-x="493" 
d="M279 757q-17 0 -28.5 6t-22.5 19l-45 61q-17 20 -11 35t32 15h37q32 0 49 -29l35 -61q10 -17 6 -31.5t-26 -14.5h-26z" />
    <glyph glyph-name="a" unicode="a" horiz-adv-x="525" 
d="M150 152q0 -26 19.5 -46.5t57.5 -20.5q27 0 48.5 12t36.5 31.5t23.5 43.5t8.5 47v19h-21q-24 0 -54 -3t-56.5 -12t-44.5 -26t-18 -45zM24 141q0 37 14 64.5t38 47t54.5 31.5t63.5 19t66 9.5t62 2.5h21v12q0 50 -28 70t-67 20q-32 0 -60 -9.5t-46 -19.5q-39 -17 -56 17
l-10 19q-19 37 16 56q25 13 67.5 27.5t99.5 14.5q100 0 155.5 -53t55.5 -150v-277q0 -42 -42 -42h-34q-41 0 -41 42v20q0 12 1 16q0 4 1 6h-2q-15 -27 -38 -48q-20 -18 -50 -33t-72 -15q-35 0 -65.5 11t-53.5 31t-36.5 48t-13.5 63z" />
    <glyph glyph-name="b" unicode="b" horiz-adv-x="603" 
d="M186 255q0 -31 8 -60t24 -51t39.5 -35.5t54.5 -13.5q27 0 50.5 10.5t41 30.5t27.5 49.5t10 67.5q0 36 -9.5 65.5t-26 50.5t-39.5 32.5t-51 11.5q-25 0 -48 -9.5t-41 -29t-29 -49t-11 -70.5zM63 668q0 42 42 42h43q42 0 42 -42v-185q0 -10 -0.5 -17.5t-1.5 -13.5
q-1 -7 -1 -12h2q14 23 36 41q19 15 48.5 28t71.5 13q51 0 92.5 -19.5t71 -54.5t45.5 -84t16 -108q0 -61 -18 -110.5t-49 -84.5t-74 -54t-92 -19q-44 0 -73 13t-48 30q-22 18 -35 43h-2q0 -2 1 -6q0 -3 0.5 -7t0.5 -9v-16q0 -17 -10.5 -26.5t-31.5 -9.5h-34q-42 0 -42 42v626
z" />
    <glyph glyph-name="c" unicode="c" horiz-adv-x="530" 
d="M31 255q0 54 19.5 102.5t55.5 85t87.5 58t114.5 21.5q62 0 103 -17.5t64 -33.5q16 -11 17.5 -25.5t-9.5 -31.5l-13 -20q-11 -17 -24.5 -18.5t-31.5 7.5q-16 11 -41 21t-58 10q-35 0 -64 -12.5t-49 -34t-31 -50t-11 -61.5q0 -32 11 -61t31.5 -51t50 -35t66.5 -13
q38 0 67 13t47 26q38 21 57 -13l10 -19q19 -35 -11 -56q-12 -9 -29 -19t-40 -19t-51 -15t-61 -6q-63 0 -114.5 21t-87.5 57t-55.5 84.5t-19.5 104.5z" />
    <glyph glyph-name="d" unicode="d" horiz-adv-x="603" 
d="M161 255q0 -73 35 -116.5t92 -43.5q25 0 48 9.5t41 29t28.5 50t10.5 72.5q0 30 -8 58t-23.5 50t-39.5 35.5t-56 13.5q-26 0 -49 -10.5t-40.5 -30.5t-28 -49.5t-10.5 -67.5zM33 255q0 61 17 110t48 84t73 54t93 19q42 0 70.5 -11.5t45.5 -25.5q20 -16 33 -36h2q-1 4 -1 8
q-1 4 -1 9.5v11.5v190q0 42 41 42h44q41 0 41 -42v-626q0 -42 -41 -42h-37q-41 0 -41 38v20q0 10 1 13q0 3 1 5h-2q-14 -25 -36 -44q-19 -17 -49.5 -30.5t-74.5 -13.5q-52 0 -94 19.5t-71.5 54.5t-45.5 84.5t-16 108.5z" />
    <glyph glyph-name="e" unicode="e" horiz-adv-x="546" 
d="M391 313q-2 54 -30.5 83.5t-72.5 29.5q-49 0 -81.5 -31t-41.5 -82h226zM32 255q0 59 19 108t53 84.5t82 55t105 19.5q54 0 96.5 -18.5t71 -50.5t43.5 -77t15 -97q0 -17 -12.5 -30t-31.5 -13h-311q3 -35 16.5 -61t34 -43.5t47 -26.5t55.5 -9q35 0 63.5 11t46.5 22
q19 9 32.5 6t23.5 -20l12 -20q19 -36 -14 -56q-25 -16 -69 -33.5t-104 -17.5q-63 0 -114 21.5t-86.5 58t-54.5 85t-19 102.5z" />
    <glyph glyph-name="f" unicode="f" horiz-adv-x="338" 
d="M90 402h-25q-41 0 -41 42v17q0 42 41 42h25v24q0 61 23 97.5t55 56.5t64.5 26.5t52.5 6.5h15q41 0 41 -42v-26q0 -38 -43 -41q-12 -1 -26 -3.5t-26 -11t-20.5 -24.5t-8.5 -44v-19h68q41 0 41 -42v-17q0 -42 -41 -42h-68v-360q0 -42 -42 -42h-44q-41 0 -41 42v360z" />
    <glyph glyph-name="g" unicode="g" horiz-adv-x="595" 
d="M290 117q22 0 43.5 7t38 24.5t26.5 46t10 71.5q0 44 -10 72.5t-27 45.5t-39.5 23.5t-47.5 6.5q-60 0 -91 -38.5t-31 -101.5q0 -69 33 -113t95 -44zM105 -106q8 19 20.5 24.5t32.5 -1.5q18 -7 43 -13t60 -6q29 0 55.5 6.5t46 21.5t31 38.5t11.5 57.5v38v9t1 8q0 4 1 9h-2
q-21 -36 -55 -56t-85 -20q-56 0 -99 20.5t-72.5 56t-44.5 82.5t-15 100q0 52 14.5 98t43.5 80.5t72 54.5t100 20q45 0 74 -12.5t46 -26.5q20 -18 31 -39h2q-1 1 -1 3v10v19q0 14 10.5 24t30.5 10h34q41 0 41 -42v-437q0 -66 -23.5 -111.5t-61 -74.5t-85 -42t-94.5 -13
q-43 0 -83 8t-66 19q-38 16 -22 54z" />
    <glyph glyph-name="h" unicode="h" horiz-adv-x="599" 
d="M63 668q0 42 42 42h43q42 0 42 -42v-206q0 -10 -0.5 -17.5t-1.5 -13.5q-1 -7 -1 -12h2q9 18 25.5 36.5t39 33.5t51 24t61.5 9q85 0 131.5 -46t46.5 -148v-286q0 -42 -42 -42h-43q-42 0 -42 42v260q0 47 -16 75.5t-64 28.5q-33 0 -60.5 -13t-46.5 -35.5t-29.5 -53.5
t-10.5 -67v-195q0 -42 -42 -42h-43q-42 0 -42 42v626z" />
    <glyph glyph-name="i" unicode="i" horiz-adv-x="252" 
d="M63 468q0 42 41 42h44q41 0 41 -42v-426q0 -42 -41 -42h-44q-41 0 -41 42v426zM104 597q-41 0 -41 41v30q0 42 41 42h44q42 0 42 -42v-30q0 -41 -42 -41h-44z" />
    <glyph glyph-name="j" unicode="j" horiz-adv-x="253" 
d="M63 468q0 42 42 42h43q42 0 42 -42v-481q0 -62 -23.5 -100t-55.5 -59t-64.5 -28t-51.5 -7h-15q-41 0 -41 42v26q0 24 12.5 31.5t28.5 9.5q13 1 27.5 5t27 13.5t20.5 27.5t8 47v473zM105 597q-42 0 -42 41v30q0 42 42 42h44q41 0 41 -42v-30q0 -41 -41 -41h-44z" />
    <glyph glyph-name="k" unicode="k" horiz-adv-x="533" 
d="M63 668q0 42 42 42h43q42 0 42 -42v-338h63l106 152q17 28 50 28h48q26 0 33 -15t-7 -35l-127 -178v-2l150 -230q13 -22 5.5 -36t-33.5 -14h-54q-33 0 -49 29l-119 194h-66v-181q0 -42 -42 -42h-43q-42 0 -42 42v626z" />
    <glyph glyph-name="l" unicode="l" horiz-adv-x="279" 
d="M62 668q0 42 41 42h44q41 0 41 -42v-499q0 -19 3.5 -30.5t9.5 -18t13 -9t14 -3.5q14 -2 22.5 -10.5t8.5 -25.5v-34q0 -20 -9.5 -31.5t-32.5 -11.5q-26 0 -53 5t-50 22t-37.5 49.5t-14.5 87.5v509z" />
    <glyph glyph-name="m" unicode="m" horiz-adv-x="898" 
d="M63 468q0 42 41 42h39q41 0 41 -42v-31q0 -5 -0.5 -9t-0.5 -7q-1 -4 -1 -7h2q9 19 25 38t37.5 34.5t48 25.5t56.5 10q117 0 149 -105h2q10 20 27.5 39t40 33.5t49.5 23.5t57 9q80 0 123.5 -46.5t43.5 -147.5v-286q0 -42 -42 -42h-43q-42 0 -42 42v262q0 22 -2.5 40.5
t-10 32t-21.5 21.5t-36 8q-32 0 -56.5 -15t-41 -40t-24.5 -57t-8 -65v-187q0 -42 -41 -42h-44q-42 0 -42 42v262q0 21 -2 39.5t-9.5 32.5t-21 22t-35.5 8q-34 0 -58.5 -15.5t-41 -41t-24.5 -57t-8 -63.5v-187q0 -42 -41 -42h-44q-41 0 -41 42v426z" />
    <glyph glyph-name="n" unicode="n" horiz-adv-x="599" 
d="M63 468q0 42 41 42h39q41 0 41 -42v-31q0 -5 -0.5 -9t-0.5 -7q-1 -4 -1 -7h2q8 16 23 35t37 35t52 27t69 11q85 0 131.5 -46t46.5 -148v-286q0 -42 -42 -42h-43q-42 0 -42 42v260q0 47 -16 75.5t-64 28.5q-34 0 -61 -13t-46 -36t-29.5 -53.5t-10.5 -64.5v-197
q0 -42 -41 -42h-44q-41 0 -41 42v426z" />
    <glyph glyph-name="o" unicode="o" horiz-adv-x="622" 
d="M160 255q0 -36 12 -65t32.5 -50t48 -32.5t58.5 -11.5t58.5 11.5t48.5 32.5t33 50t12 65q0 35 -12 64.5t-33 50.5t-48.5 32.5t-58.5 11.5t-58.5 -11.5t-48 -32.5t-32.5 -50.5t-12 -64.5zM31 255q0 58 22 107.5t60 84.5t89 55t109 20t109 -20t89.5 -55t60.5 -84.5
t22 -107.5q0 -59 -22 -108t-60.5 -84.5t-89.5 -55t-109 -19.5t-109 19.5t-89 55t-60 84.5t-22 108z" />
    <glyph glyph-name="p" unicode="p" horiz-adv-x="603" 
d="M186 252q0 -30 8 -58t24 -50t40 -35.5t55 -13.5q26 0 49.5 10.5t41 30.5t27.5 49.5t10 67.5q0 73 -35 116.5t-91 43.5q-25 0 -48 -9.5t-41 -29t-29 -50t-11 -72.5zM63 468q0 42 42 42h32q20 0 30.5 -10t10.5 -25v-23q0 -5 -0.5 -8t-0.5 -6v-6h2q14 25 37 45q20 17 51 31
t76 14q52 0 94 -19.5t71.5 -55t45.5 -84.5t16 -108q0 -61 -17.5 -110t-49 -84t-74.5 -54t-93 -19q-40 0 -68 12t-45 27q-21 17 -34 39h-2q0 -5 1 -12q1 -6 1.5 -14t0.5 -18v-180q0 -42 -42 -42h-43q-42 0 -42 42v626z" />
    <glyph glyph-name="q" unicode="q" horiz-adv-x="603" 
d="M161 255q0 -73 35 -116.5t92 -43.5q25 0 48 9.5t41 29t28.5 50t10.5 72.5q0 30 -8 58t-23.5 50t-39.5 35.5t-56 13.5q-26 0 -49 -10.5t-40.5 -30.5t-28 -49.5t-10.5 -67.5zM33 255q0 61 17.5 110t48 84t73.5 54t94 19q44 0 73.5 -13t48.5 -29q22 -18 35 -42h2q-1 1 -1 5
q-1 2 -1 6v9v18q0 14 10.5 24t31.5 10h33q41 0 41 -42v-626q0 -42 -41 -42h-44q-41 0 -41 42v185v18t1 14q0 7 1 12h-2q-13 -24 -34 -42q-18 -16 -48 -28.5t-75 -12.5q-50 0 -91 19.5t-70 54.5t-45.5 84.5t-16.5 108.5z" />
    <glyph glyph-name="r" unicode="r" horiz-adv-x="375" 
d="M63 468q0 42 41 42h39q42 0 42 -42v-48q0 -8 -0.5 -14t-1.5 -11t-1 -10h2q7 23 21 46t33.5 41.5t43 30t50.5 11.5q21 0 29.5 -10.5t8.5 -31.5v-39q0 -42 -43 -42q-35 0 -61 -16t-43 -42t-25.5 -59t-8.5 -68v-164q0 -42 -41 -42h-44q-41 0 -41 42v426z" />
    <glyph glyph-name="s" unicode="s" horiz-adv-x="447" 
d="M51 40q-17 10 -19 25t9 32l12 18q11 16 24.5 18t32.5 -8q18 -10 46.5 -22.5t67.5 -12.5q33 0 52 14t19 38q0 21 -18.5 33.5t-47 23t-61 22.5t-61 30t-47 46t-18.5 72q0 37 15.5 66t42 48t62 29t75.5 10q51 0 86.5 -13t55.5 -24q17 -9 20 -24t-5 -32l-10 -18
q-9 -18 -23 -21t-33 5q-17 8 -41 16.5t-56 8.5q-33 0 -51 -13t-18 -37q0 -21 18.5 -33.5t47 -23t61 -22t61 -29.5t47 -46t18.5 -71q0 -34 -13.5 -62.5t-39 -49.5t-61.5 -33t-80 -12q-62 0 -104.5 18t-65.5 34z" />
    <glyph glyph-name="t" unicode="t" horiz-adv-x="364" 
d="M91 402h-27q-41 0 -41 42v17q0 42 42 42h29v104q0 42 42 42h40q42 0 42 -42v-104h74q42 0 42 -42v-17q0 -42 -41 -42h-75v-198q0 -29 8 -46.5t20 -28t26.5 -15t27.5 -5.5q23 -2 32.5 -11t9.5 -30v-31q0 -23 -13 -32.5t-39 -9.5q-34 0 -69.5 10t-64 32t-47 57.5
t-18.5 87.5v220z" />
    <glyph glyph-name="u" unicode="u" horiz-adv-x="594" 
d="M56 468q0 42 42 42h43q42 0 42 -42v-260q0 -47 16 -75.5t63 -28.5q34 0 61 14t45 38t27.5 55t9.5 65v192q0 42 42 42h43q42 0 42 -42v-426q0 -42 -42 -42h-39q-41 0 -41 42v30v9t1 7q0 4 1 7h-2q-9 -20 -25.5 -39t-39.5 -34t-51 -24.5t-61 -9.5q-82 0 -129.5 45
t-47.5 149v286z" />
    <glyph glyph-name="v" unicode="v" horiz-adv-x="520" 
d="M18 462q-8 22 1 35t32 13h47q37 0 47 -35l95 -281q4 -11 7 -25t6 -25q3 -14 6 -27h2q2 13 5 27q2 11 5.5 25t7.5 25l95 281q10 35 47 35h47q23 0 32.5 -13t1.5 -35l-154 -428q-11 -34 -47 -34h-80q-37 0 -47 34z" />
    <glyph glyph-name="w" unicode="w" horiz-adv-x="810" 
d="M22 463q-6 21 3.5 34t31.5 13h48q38 0 45 -37l82 -298q2 -11 3.5 -20t3.5 -17q2 -9 3 -17h2q1 8 3 17q2 8 3.5 17t4.5 20l86 298q7 36 46 36h38q37 0 46 -36l85 -298q3 -11 4.5 -20t3.5 -17q2 -9 3 -17h2q1 8 3 17q2 8 3.5 17t4.5 20l81 298q9 37 46 37h46q23 0 32 -13
t3 -34l-131 -428q-10 -35 -47 -35h-67q-38 0 -47 36l-77 255q-3 10 -5 20t-4 18q-2 9 -3 17h-2q-2 -8 -4 -17q-2 -8 -4 -18t-5 -20l-77 -255q-9 -36 -46 -36h-69q-36 0 -46 35z" />
    <glyph glyph-name="x" unicode="x" horiz-adv-x="498" 
d="M173 258l-132 202q-14 21 -6.5 35.5t33.5 14.5h51q32 0 49 -30l64 -109q2 -5 5.5 -10.5t5.5 -10.5q3 -5 5 -11h2q3 6 6 11q2 5 5 10.5t5 10.5l64 109q16 30 49 30h51q26 0 33.5 -14.5t-6.5 -35.5l-131 -202l136 -208q14 -21 6 -35.5t-34 -14.5h-48q-33 0 -49 29l-73 119
l-4.5 9l-4.5 9q-3 4 -5 9h-2q-1 -5 -4 -9q-2 -4 -5 -9t-5 -9l-72 -119q-17 -29 -49 -29h-49q-26 0 -33.5 14.5t6.5 35.5z" />
    <glyph glyph-name="y" unicode="y" horiz-adv-x="514" 
d="M24 -119q8 17 20 21.5t25 1.5q7 -3 16 -6t20 -3q28 0 49 20.5t32 47.5l19 45l-194 453q-10 22 -1 35.5t33 13.5h54q35 0 47 -34l96 -260q3 -11 6.5 -22.5t6.5 -22.5q4 -12 6 -24h2q2 12 5 23q2 10 5.5 21.5t6.5 22.5l90 261q10 35 47 35h50q23 0 32.5 -13t1.5 -35
l-210 -538q-13 -35 -33 -60t-44 -41.5t-51.5 -24.5t-55.5 -8q-21 0 -39 5t-32 10q-18 7 -22.5 22t3.5 32z" />
    <glyph glyph-name="z" unicode="z" horiz-adv-x="510" 
d="M28 44q0 16 4 25.5t14 21.5l211 264q9 11 16.5 19.5t13.5 14.5l13 13v2q-4 -1 -11 -1q-6 -1 -15 -1h-21h-173q-42 0 -42 42v24q0 42 42 42h350q42 0 42 -34v-10q0 -16 -4 -25.5t-14 -21.5l-211 -265q-9 -11 -17 -19.5t-14 -14.5l-13 -13v-2q5 0 12 1q6 1 14.5 1.5
t21.5 0.5h190q42 0 42 -42v-24q0 -42 -42 -42h-367q-42 0 -42 34v10z" />
    <glyph glyph-name="braceleft" unicode="{" horiz-adv-x="343" 
d="M109 168q0 21 -5 37t-12.5 27t-16.5 18t-17 12q-16 9 -25 18t-9 28v39q0 19 9 28t24 19q17 7 34.5 29t17.5 66v85q0 54 18 87.5t42.5 52t50.5 24.5t42 6h13q42 0 42 -42v-15q0 -41 -42 -41q-8 0 -18 -2.5t-19 -11t-15 -25.5t-6 -46v-105q0 -38 -13 -62.5t-28 -38.5
q-18 -17 -41 -26v-2q23 -7 41 -24q15 -14 28 -39t13 -63v-117q0 -29 6 -45.5t15 -25t19 -11t18 -2.5q42 0 42 -42v-15q0 -42 -42 -42h-13q-16 0 -42 6.5t-50.5 24.5t-42.5 51.5t-18 87.5v97z" />
    <glyph glyph-name="bar" unicode="|" horiz-adv-x="251" 
d="M71 754q0 42 42 42h25q42 0 42 -42v-874q0 -41 -42 -41h-25q-42 0 -42 41v874z" />
    <glyph glyph-name="braceright" unicode="}" horiz-adv-x="344" 
d="M26 -42q0 42 42 42q7 0 17 2.5t19 11t15.5 25t6.5 45.5v117q0 38 12.5 63t28.5 39q18 17 41 24v2q-23 9 -41 26q-16 14 -28.5 38.5t-12.5 62.5v105q0 29 -6.5 46t-15.5 25.5t-19 11t-17 2.5q-42 0 -42 41v15q0 42 42 42h13q16 0 42 -6t50.5 -24.5t42.5 -52t18 -87.5v-85
q0 -44 17.5 -66t34.5 -29q15 -10 24 -19t9 -28v-39q0 -19 -9 -28t-25 -18q-8 -5 -17 -12t-16.5 -18t-12.5 -27t-5 -37v-97q0 -54 -18 -87.5t-42.5 -51.5t-50.5 -24.5t-42 -6.5h-13q-42 0 -42 42v15z" />
    <glyph glyph-name="asciitilde" unicode="~" horiz-adv-x="593" 
d="M90 199q-21 0 -32 13t-7 39q11 66 49 98t100 32q38 0 62 -14t43 -31.5t36.5 -31.5t42.5 -14t37.5 15.5t18.5 33.5q8 18 16.5 28t27.5 10h20q20 0 31.5 -11.5t8.5 -32.5q-9 -71 -48 -104.5t-102 -33.5q-38 0 -62 14t-43 31t-37 31t-43 14q-24 0 -36.5 -15t-17.5 -34
q-8 -17 -17 -27t-28 -10h-20z" />
    <glyph glyph-name="uni00A0" unicode="&#xa0;" horiz-adv-x="250" 
 />
    <glyph glyph-name="exclamdown" unicode="&#xa1;" horiz-adv-x="262" 
d="M191 432q0 -42 -41 -42h-40q-42 0 -42 42v35q0 42 42 42h40q41 0 41 -42v-35zM145 304q40 0 42 -41l8 -421q0 -43 -41 -43h-47q-43 0 -41 43l8 421q0 41 42 41h29z" />
    <glyph glyph-name="cent" unicode="&#xa2;" horiz-adv-x="563" 
d="M253 74q-47 8 -86 32.5t-67 62t-43 85t-15 101.5t15 101.5t43 85t67 62.5t86 33v42q0 42 40 42h7q40 0 40 -33v-51q28 -5 54.5 -16.5t49 -28.5t40 -37t28.5 -41q19 -37 -22 -54l-38 -15q-22 -8 -33 -1.5t-22 20.5q-17 26 -40.5 41t-54.5 15q-30 0 -54 -12t-41.5 -34
t-27 -53t-9.5 -68q0 -72 34.5 -117.5t96.5 -45.5q32 0 55.5 15t40.5 41q11 13 22.5 20.5t32.5 -0.5l38 -15q40 -17 22 -55q-11 -20 -28 -40.5t-39.5 -38t-49 -29t-55.5 -14.5v-45q0 -41 -40 -41h-7q-40 0 -40 41v45z" />
    <glyph glyph-name="sterling" unicode="&#xa3;" horiz-adv-x="591" 
d="M52 70q0 41 41 41h21v200h-17q-38 0 -38 40v6q0 41 38 41h17v121q0 44 17 81.5t47 64.5t71.5 42t91.5 15q49 0 86 -15.5t60 -30.5q17 -11 17.5 -26.5t-12.5 -31.5l-19 -25q-13 -16 -27.5 -17t-31.5 9q-12 7 -30.5 13.5t-39.5 6.5q-45 0 -72 -26t-27 -64v-117h135
q41 0 41 -41v-6q0 -40 -41 -40h-135v-200h269q42 0 42 -41v-28q0 -42 -42 -42h-421q-41 0 -41 42v28z" />
    <glyph glyph-name="currency" unicode="&#xa4;" horiz-adv-x="506" 
d="M253 222q57 0 88 40.5t31 102.5q0 30 -8 56.5t-23 46t-37.5 30.5t-50.5 11q-29 0 -51 -11t-37.5 -30.5t-23.5 -46t-8 -56.5q0 -31 8 -57t23.5 -45t37.5 -30t51 -11zM19 168l69 71q-38 55 -38 126t38 124l-69 71l45 43l67 -69q24 18 54.5 29t67.5 11q36 0 67 -11t55 -29
l67 69l45 -43l-69 -71q37 -54 37 -124q0 -35 -10 -67t-28 -58l70 -72l-45 -43l-68 69q-49 -37 -121 -37t-121 37l-68 -69z" />
    <glyph glyph-name="yen" unicode="&#xa5;" horiz-adv-x="600" 
d="M113 186q-41 0 -41 36v6q0 35 41 35h122v33l-26 48h-96q-41 0 -41 35v6q0 35 36 35h62l-129 241q-11 21 -2.5 35t32.5 14h58q35 0 47 -33l81 -157q8 -21 16 -41t14 -37q7 -19 13 -36h2q6 17 13 36q6 17 13.5 37t16.5 41l80 157q12 33 47 33h57q25 0 33.5 -14t-2.5 -35
l-130 -241h57q41 0 41 -35v-6q0 -35 -41 -35h-96l-25 -48v-33h121q41 0 41 -35v-6q0 -36 -41 -36h-121v-144q0 -42 -42 -42h-48q-41 0 -41 42v144h-122z" />
    <glyph glyph-name="section" unicode="&#xa7;" horiz-adv-x="468" 
d="M71 50q11 17 25 19t32 -7q15 -8 35 -14.5t43 -6.5q43 0 73 24t30 77q0 12 -2 26t-7 31l-54 277q-6 21 3.5 33.5t31.5 12.5h15q37 0 46 -36l63 -308q3 -15 5 -29t2 -28q0 -39 -13.5 -72.5t-40 -58t-64.5 -38.5t-87 -14q-46 0 -80 12t-55 26q-17 11 -19.5 25.5t8.5 31.5z
M65 482q-4 14 -5.5 28.5t-1.5 28.5q0 39 13.5 72.5t39.5 58t64 38.5t88 14q45 0 79 -12t56 -26q17 -10 18.5 -25t-9.5 -32l-11 -15q-11 -17 -25 -18.5t-32 6.5q-14 7 -33 12.5t-42 5.5q-43 0 -73 -22t-30 -72q0 -23 7 -50l58 -290q5 -21 -4 -33.5t-32 -12.5h-15
q-37 0 -46 36z" />
    <glyph glyph-name="dieresis" unicode="&#xa8;" horiz-adv-x="493" 
d="M148 777q-42 0 -42 42v33q0 41 42 41h14q42 0 42 -41v-33q0 -42 -42 -42h-14zM331 777q-41 0 -41 42v33q0 41 41 41h15q41 0 41 -41v-33q0 -42 -41 -42h-15z" />
    <glyph glyph-name="copyright" unicode="&#xa9;" horiz-adv-x="808" 
d="M220 353q0 40 14 75.5t39 62t60 42t77 15.5q26 0 48 -6.5t40 -17t30.5 -22.5t20.5 -22q10 -14 7 -25.5t-11 -18.5l-15 -13q-11 -10 -25 -6.5t-24 15.5q-9 10 -25.5 21.5t-43.5 11.5q-46 0 -73 -32t-27 -82q0 -46 26 -78t74 -32q31 0 48.5 12.5t25.5 23.5q22 24 44 6
l14 -12q14 -12 13 -23.5t-9 -22.5q-8 -9 -20.5 -21t-30 -22t-39.5 -17t-48 -7q-43 0 -78 15.5t-60 42t-38.5 62t-13.5 75.5zM134 355q0 -60 20.5 -112t57 -91t85.5 -61t106 -22t106.5 22t86 61t57.5 91t21 112t-21 112t-57.5 90.5t-86 60.5t-106.5 22t-106.5 -22
t-85.5 -60.5t-56.5 -90.5t-20.5 -112zM45 355q0 76 28 143t76.5 116.5t113.5 78t140 28.5t140.5 -28.5t114 -78t77 -116.5t28.5 -143t-28.5 -143t-77 -116.5t-114 -78.5t-140.5 -29t-140 29t-113.5 78.5t-76.5 116.5t-28 143z" />
    <glyph glyph-name="ordfeminine" unicode="&#xaa;" horiz-adv-x="398" 
d="M97 266q-42 0 -42 32v5q0 31 42 31h203q42 0 42 -31v-5q0 -32 -42 -32h-203zM184 453q14 0 25.5 6.5t20 16.5t13 23t4.5 26v7h-11q-13 0 -29 -1.5t-30 -6t-23.5 -13.5t-9.5 -24t10.5 -24.5t29.5 -9.5zM162 383q-21 0 -40.5 6.5t-34.5 19t-24 31t-9 42.5q0 40 22 62
t52 32.5t61.5 12.5t50.5 2h8v7q0 29 -16.5 40.5t-40.5 11.5q-14 0 -28.5 -3.5t-23.5 -8.5q-34 -13 -46 12l-3 7q-6 12 -1.5 24t24.5 20q14 6 37.5 12.5t53.5 6.5q66 0 100 -34.5t34 -95.5v-159q0 -42 -38 -42h-3q-38 0 -38 39v14h-2q-9 -17 -22 -30q-11 -11 -29 -20t-44 -9z
" />
    <glyph glyph-name="guillemotleft" unicode="&#xab;" horiz-adv-x="554" 
d="M49 253q-24 29 0 58l121 153q11 12 22.5 18t28.5 6h25q26 0 33.5 -15t-9.5 -36l-123 -155l123 -154q17 -21 11 -36t-31 -15h-29q-17 0 -28.5 6t-22.5 18zM274 253q-24 29 0 58l121 153q11 12 22.5 18t28.5 6h24q27 0 34 -15t-10 -36l-123 -155l123 -154q17 -21 11.5 -36
t-30.5 -15h-29q-17 0 -28.5 6t-22.5 18z" />
    <glyph glyph-name="logicalnot" unicode="&#xac;" horiz-adv-x="611" 
d="M95 339q-41 0 -41 42v15q0 41 41 41h405q42 0 42 -41v-211q0 -42 -42 -42h-19q-41 0 -41 42v154h-345z" />
    <glyph glyph-name="uni00AD" unicode="&#xad;" horiz-adv-x="417" 
d="M100 230q-42 0 -42 42v28q0 41 42 41h217q42 0 42 -41v-28q0 -42 -42 -42h-217z" />
    <glyph glyph-name="registered" unicode="&#xae;" horiz-adv-x="808" 
d="M409 369q26 0 39.5 14.5t13.5 40.5t-13.5 40t-37.5 14h-49v-109h47zM277 498q0 42 42 42h110q55 0 87.5 -31.5t32.5 -84.5q0 -21 -6.5 -37.5t-16 -28.5t-21 -19t-20.5 -10v-2q1 -1 3 -4q2 -2 4 -6.5t6 -10.5l43 -83q11 -22 5 -35.5t-26 -13.5h-13q-35 0 -48 31l-48 104
h-49v-93q0 -42 -39 -42h-7q-39 0 -39 42v282zM134 355q0 -60 20.5 -112t56.5 -91t85 -61t106 -22q58 0 107.5 22t86 61t57.5 91t21 112t-21 112t-57.5 90.5t-86 60.5t-107.5 22q-57 0 -106 -22t-85 -60.5t-56.5 -90.5t-20.5 -112zM45 355q0 76 28 143t76.5 116.5t113.5 78
t139 28.5q75 0 141 -28.5t115 -78t77 -116.5t28 -143t-28 -143t-77 -116.5t-115 -78.5t-141 -29q-74 0 -139 29t-113.5 78.5t-76.5 116.5t-28 143z" />
    <glyph glyph-name="macron" unicode="&#xaf;" horiz-adv-x="493" 
d="M157 783q-41 0 -41 40v7q0 40 41 40h179q42 0 42 -40v-7q0 -40 -42 -40h-179z" />
    <glyph glyph-name="degree" unicode="&#xb0;" horiz-adv-x="392" 
d="M196 499q28 0 47.5 19t19.5 47q0 27 -19.5 46.5t-47.5 19.5t-47 -19.5t-19 -46.5q0 -28 19 -47t47 -19zM196 408q-34 0 -64 12t-52 33.5t-34.5 50t-12.5 61.5q0 32 12.5 61t34.5 50.5t52 34t64 12.5t63.5 -12.5t51.5 -34t35 -50.5t13 -61q0 -33 -13 -61.5t-35 -50
t-51.5 -33.5t-63.5 -12z" />
    <glyph glyph-name="plusminus" unicode="&#xb1;" 
d="M522 -85q42 0 42 -42v-15q0 -41 -42 -41h-425q-41 0 -41 41v15q0 42 41 42h425zM84 236q-42 0 -42 42v15q0 42 42 42h174v195q0 42 42 42h20q41 0 41 -42v-195h175q41 0 41 -42v-15q0 -42 -41 -42h-175v-194q0 -42 -41 -42h-20q-42 0 -42 42v194h-174z" />
    <glyph glyph-name="uni00B2" unicode="&#xb2;" horiz-adv-x="367" 
d="M68 423q-42 0 -42 42q0 43 15.5 73.5t38.5 53t49.5 39t49.5 32t38.5 31.5t15.5 38q0 23 -17.5 37.5t-43.5 14.5q-16 0 -29 -6t-22 -13q-17 -11 -30 -13t-27 11l-5 4q-15 14 -16 28.5t14 28.5q17 16 47 32t74 16q30 0 57 -9t48 -26.5t33.5 -42.5t12.5 -58q0 -36 -14 -61.5
t-35.5 -45t-46.5 -34.5t-47 -28.5t-37.5 -28t-17.5 -32.5h163q42 0 42 -39v-5q0 -39 -42 -39h-226z" />
    <glyph glyph-name="uni00B3" unicode="&#xb3;" horiz-adv-x="362" 
d="M166 413q-45 0 -76 13.5t-48 27.5q-30 20 -8 54l5 6q11 17 24 17.5t30 -8.5q11 -8 27.5 -15.5t40.5 -7.5q29 0 50 18t21 45t-23 42t-50 15h-11q-29 0 -39 23q-10 24 13 48l56 64q3 4 7 8l8 8t9 8v2l-12 -2q-5 -1 -11.5 -1h-11.5h-88q-41 0 -41 40v5q0 39 41 39h197
q42 0 42 -30v-6q0 -15 -4.5 -25t-15.5 -22l-79 -90q48 -9 78.5 -41t30.5 -86q0 -29 -11 -56t-32 -47.5t-51 -33t-68 -12.5z" />
    <glyph glyph-name="acute" unicode="&#xb4;" horiz-adv-x="493" 
d="M193 757q-22 0 -29 13.5t4 33.5l35 60q17 29 49 29h36q27 0 33 -15t-11 -35l-45 -61q-11 -13 -22.5 -19t-28.5 -6h-21z" />
    <glyph glyph-name="mu" unicode="&#xb5;" horiz-adv-x="637" 
d="M77 468q0 42 42 42h43q42 0 42 -42v-260q0 -47 16 -75.5t63 -28.5q34 0 61 14t45 38t27.5 55t9.5 65v192q0 42 42 42h43q42 0 42 -42v-426q0 -42 -42 -42h-39q-41 0 -41 42v29v16q0 4 1 7h-2q-7 -14 -21.5 -32t-36.5 -34.5t-52 -28t-67 -11.5q-19 0 -32 3t-22 7
q-11 4 -17 11h-2q1 -15 3 -29q2 -13 3 -27t1 -27v-84q0 -42 -41 -42h-27q-42 0 -42 42v626z" />
    <glyph glyph-name="paragraph" unicode="&#xb6;" horiz-adv-x="620" 
d="M424 502q0 42 42 42h9q42 0 42 -42v-510q0 -42 -42 -42h-9q-42 0 -42 42v510zM270 241q-48 0 -91 18t-75.5 50t-51 74.5t-18.5 92.5q0 49 18.5 92t50.5 74.5t75 49.5t91 18h264q41 0 41 -42v-28q0 -41 -41 -41h-171v-607q0 -42 -41 -42h-10q-41 0 -41 42v249z" />
    <glyph glyph-name="periodcentered" unicode="&#xb7;" horiz-adv-x="241" 
d="M100 228q-41 0 -41 41v46q0 41 41 41h41q42 0 42 -41v-46q0 -41 -42 -41h-41z" />
    <glyph glyph-name="cedilla" unicode="&#xb8;" horiz-adv-x="493" 
d="M209 20h63l-14 -64q31 -4 52 -22.5t21 -53.5q0 -25 -9.5 -41.5t-24.5 -27t-34.5 -15t-39.5 -4.5q-8 0 -18 1t-18.5 4.5t-14.5 10t-6 18.5q0 17 6.5 26t14.5 9q7 0 12.5 -1.5t12.5 -1.5q16 0 26.5 7t10.5 22q0 14 -12.5 20.5t-32.5 8.5q-23 2 -15 31z" />
    <glyph glyph-name="uni00B9" unicode="&#xb9;" horiz-adv-x="317" 
d="M70 423q-41 0 -41 39v5q0 39 35 39h56v207v11t1 9l2 8h-2q-1 -1 -3 -4t-11 -12l-16 -15q-17 -15 -36 3l-11 11q-14 14 -12 28.5t17 28.5l61 60q12 11 23.5 16t27.5 5h13q41 0 41 -42v-314h50q41 0 41 -39v-5q0 -39 -41 -39h-195z" />
    <glyph glyph-name="ordmasculine" unicode="&#xba;" horiz-adv-x="447" 
d="M104 266q-41 0 -41 32v5q0 31 41 31h240q41 0 41 -31v-5q0 -32 -41 -32h-240zM223 464q35 0 60 24.5t25 64.5q0 39 -25 63.5t-60 24.5t-59.5 -24.5t-24.5 -63.5q0 -40 24.5 -64.5t59.5 -24.5zM223 384q-36 0 -68 12.5t-55.5 35t-37.5 53.5t-14 68t14 67.5t37.5 52.5
t55.5 34.5t68 12.5t68 -12.5t56 -34.5t38 -52.5t14 -67.5t-14 -68t-38 -53.5t-56 -35t-68 -12.5z" />
    <glyph glyph-name="guillemotright" unicode="&#xbb;" horiz-adv-x="554" 
d="M83 77q-26 0 -33.5 15t9.5 36l123 154l-123 155q-17 21 -11 36t31 15h29q17 0 28.5 -6t22.5 -18l121 -153q24 -29 0 -58l-121 -152q-11 -12 -22.5 -18t-28.5 -6h-25zM407 282l-123 155q-17 21 -11 36t31 15h29q17 0 28.5 -6t22.5 -18l120 -153q24 -29 0 -58l-120 -152
q-11 -12 -22.5 -18t-28.5 -6h-25q-27 0 -34 15t10 36z" />
    <glyph glyph-name="onequarter" unicode="&#xbc;" horiz-adv-x="965" 
d="M87 272q-41 0 -41 39v5q0 39 35 39h56v207v11t1 9l2 8h-2q-1 -1 -3 -4t-11 -12l-16 -15q-17 -15 -36 3l-11 11q-14 14 -12 28.5t17 28.5l61 60q12 11 23.5 16t27.5 5h13q41 0 41 -42v-314h50q41 0 41 -39v-5q0 -39 -41 -39h-195zM363 31q-15 -31 -48 -31h-14
q-20 0 -26.5 13.5t4.5 35.5l299 630q15 31 48 31h14q20 0 26 -13.5t-4 -35.5zM777 181v110q0 10 0.5 19.5t1.5 17.5l2 18h-2l-8 -16q-4 -7 -8.5 -15t-9.5 -16l-83 -116v-2h107zM819 0q-42 0 -42 42v57h-162q-41 0 -41 32v11q0 15 3.5 23t11.5 21l156 226q19 27 50 27h34
q42 0 42 -42v-216h26q35 0 35 -38v-5q0 -39 -35 -39h-26v-57q0 -42 -42 -42h-10z" />
    <glyph glyph-name="onehalf" unicode="&#xbd;" horiz-adv-x="949" 
d="M83 272q-41 0 -41 39v5q0 39 35 39h56v207v11t1 9l2 8h-2q-1 -1 -3 -4t-11 -12l-16 -15q-17 -15 -36 3l-11 11q-14 14 -12 28.5t17 28.5l61 60q12 11 23.5 16t27.5 5h13q41 0 41 -42v-314h50q41 0 41 -39v-5q0 -39 -41 -39h-195zM362 31q-15 -31 -48 -31h-14
q-20 0 -26.5 13.5t4.5 35.5l299 630q15 31 48 31h14q20 0 26 -13.5t-4 -35.5zM642 0q-42 0 -42 42q0 43 15.5 73.5t38.5 53t49.5 39t49.5 32t38.5 32t15.5 37.5q0 23 -17.5 37.5t-43.5 14.5q-16 0 -29 -6t-22 -13q-17 -11 -30 -13t-27 11l-5 4q-15 14 -16 28.5t14 28.5
q17 16 47 32t74 16q30 0 57 -9t48 -26.5t33.5 -42.5t12.5 -58q0 -36 -14 -61.5t-35.5 -45t-46.5 -34.5t-47 -28.5t-37.5 -28t-17.5 -32.5h163q42 0 42 -39v-5q0 -39 -42 -39h-226z" />
    <glyph glyph-name="threequarters" unicode="&#xbe;" horiz-adv-x="977" 
d="M374 31q-15 -31 -48 -31h-14q-20 0 -26.5 13.5t4.5 35.5l299 630q15 31 48 31h14q20 0 26 -13.5t-4 -35.5zM182 262q-45 0 -76 13.5t-48 27.5q-30 20 -8 54l5 6q11 17 24 17.5t30 -8.5q11 -8 27.5 -15.5t40.5 -7.5q29 0 50 18t21 45t-23 42t-50 15h-11q-29 0 -39 23
q-10 24 13 48l56 64q3 4 7 8l8 8t9 8v2l-12 -2q-5 -1 -11.5 -1h-11.5h-88q-41 0 -41 40v5q0 39 41 39h197q42 0 42 -30v-6q0 -15 -4.5 -25t-15.5 -22l-79 -90q48 -9 78.5 -41t30.5 -86q0 -29 -11 -56t-32 -47.5t-51 -33t-68 -12.5zM788 181v110q0 10 0.5 19.5t1.5 17.5l2 18
h-2l-8 -16q-4 -7 -8.5 -15t-9.5 -16l-83 -116v-2h107zM830 0q-42 0 -42 42v57h-162q-41 0 -41 32v11q0 15 3.5 23t11.5 21l156 226q19 27 50 27h34q42 0 42 -42v-216h26q35 0 35 -38v-5q0 -39 -35 -39h-26v-57q0 -42 -42 -42h-10z" />
    <glyph glyph-name="questiondown" unicode="&#xbf;" horiz-adv-x="467" 
d="M344 432q0 -42 -42 -42h-40q-41 0 -41 42v35q0 42 41 42h40q42 0 42 -42v-35zM302 304q42 0 42 -41v-16q0 -32 -12 -56.5t-30.5 -45t-40 -38.5t-40 -36.5t-30.5 -39.5t-12 -46q0 -35 28 -59t69 -24q23 0 41.5 6.5t32.5 13.5q17 9 33 8t27 -18l17 -25q12 -17 11 -31
t-18 -25q-23 -15 -62 -30.5t-93 -15.5q-42 0 -81.5 13t-70 37t-49 59t-18.5 79q0 39 12 68.5t30.5 52.5t40 42.5t41 38t33.5 38.5t17 45l2 17q4 16 13 22.5t27 6.5h40z" />
    <glyph glyph-name="Agrave" unicode="&#xc0;" horiz-adv-x="634" 
d="M300 757q-17 0 -28.5 6t-22.5 19l-45 61q-17 20 -11 35t32 15h37q32 0 49 -29l35 -61q10 -17 6 -31.5t-26 -14.5h-26zM409 287l-63 190q-5 15 -10 34t-9 36q-5 19 -9 40h-2q-6 -21 -10 -40q-5 -17 -9 -36t-9 -34l-64 -190h185zM238 676q12 34 47 34h64q37 0 47 -34
l222 -628q8 -22 -1.5 -35t-32.5 -13h-46q-37 0 -47 34l-50 148h-249l-49 -147q-10 -35 -47 -35h-46q-23 0 -32.5 13t-1.5 35z" />
    <glyph glyph-name="Aacute" unicode="&#xc1;" horiz-adv-x="634" 
d="M312 757q-22 0 -29 13.5t4 33.5l35 60q17 29 49 29h36q27 0 33 -15t-11 -35l-45 -61q-11 -13 -22.5 -19t-28.5 -6h-21zM409 287l-63 190q-5 15 -10 34t-9 36q-5 19 -9 40h-2q-6 -21 -10 -40q-5 -17 -9 -36t-9 -34l-64 -190h185zM238 676q12 34 47 34h64q37 0 47 -34
l222 -628q8 -22 -1.5 -35t-32.5 -13h-46q-37 0 -47 34l-50 148h-249l-49 -147q-10 -35 -47 -35h-46q-23 0 -32.5 13t-1.5 35z" />
    <glyph glyph-name="Acircumflex" unicode="&#xc2;" horiz-adv-x="634" 
d="M213 757q-22 0 -27 14.5t9 36.5l40 58q18 27 51 27h62q33 0 51 -27l40 -58q14 -22 9 -36.5t-27 -14.5h-26q-18 0 -26.5 7t-17.5 22l-33 52h-2l-34 -52q-8 -15 -17 -22t-26 -7h-26zM409 287l-63 190q-5 15 -10 34t-9 36q-5 19 -9 40h-2q-6 -21 -10 -40q-5 -17 -9 -36
t-9 -34l-64 -190h185zM238 676q12 34 47 34h64q37 0 47 -34l222 -628q8 -22 -1.5 -35t-32.5 -13h-46q-37 0 -47 34l-50 148h-249l-49 -147q-10 -35 -47 -35h-46q-23 0 -32.5 13t-1.5 35z" />
    <glyph glyph-name="Atilde" unicode="&#xc3;" horiz-adv-x="634" 
d="M175 758q-36 0 -36 38q0 20 7.5 38t20.5 31.5t31.5 21.5t41.5 8q28 0 47 -10t34 -22.5t27.5 -22.5t28.5 -10q17 0 25 11t10 28q2 23 36 23h10q37 0 37 -34q0 -46 -28 -74.5t-73 -28.5q-29 0 -48 10t-33.5 22.5t-27 22.5t-28.5 10q-17 0 -26.5 -11.5t-11.5 -28.5
q-3 -22 -34 -22h-10zM409 287l-63 190q-5 15 -10 34t-9 36q-5 19 -9 40h-2q-6 -21 -10 -40q-5 -17 -9 -36t-9 -34l-64 -190h185zM238 676q12 34 47 34h64q37 0 47 -34l222 -628q8 -22 -1.5 -35t-32.5 -13h-46q-37 0 -47 34l-50 148h-249l-49 -147q-10 -35 -47 -35h-46
q-23 0 -32.5 13t-1.5 35z" />
    <glyph glyph-name="Adieresis" unicode="&#xc4;" horiz-adv-x="634" 
d="M218 777q-42 0 -42 42v33q0 41 42 41h14q42 0 42 -41v-33q0 -42 -42 -42h-14zM401 777q-41 0 -41 42v33q0 41 41 41h15q41 0 41 -41v-33q0 -42 -41 -42h-15zM409 287l-63 190q-5 15 -10 34t-9 36q-5 19 -9 40h-2q-6 -21 -10 -40q-5 -17 -9 -36t-9 -34l-64 -190h185z
M238 676q12 34 47 34h64q37 0 47 -34l222 -628q8 -22 -1.5 -35t-32.5 -13h-46q-37 0 -47 34l-50 148h-249l-49 -147q-10 -35 -47 -35h-46q-23 0 -32.5 13t-1.5 35z" />
    <glyph glyph-name="Aring" unicode="&#xc5;" horiz-adv-x="634" 
d="M317 789q15 0 24.5 9.5t9.5 24.5q0 16 -9.5 25.5t-24.5 9.5t-24.5 -9.5t-9.5 -25.5q0 -15 9 -24.5t25 -9.5zM317 745q-18 0 -35 5t-30.5 15t-21.5 24.5t-8 33.5t8 34t21.5 25t30.5 15t35 5t34.5 -5t30 -15t21.5 -25t8 -34t-8 -33.5t-21.5 -24.5t-30 -15t-34.5 -5z
M409 287l-63 190q-5 15 -10 34t-9 36q-5 19 -9 40h-2q-6 -21 -10 -40q-5 -17 -9 -36t-9 -34l-64 -190h185zM238 676q12 34 47 34h64q37 0 47 -34l222 -628q8 -22 -1.5 -35t-32.5 -13h-46q-37 0 -47 34l-50 148h-249l-49 -147q-10 -35 -47 -35h-46q-23 0 -32.5 13t-1.5 35z
" />
    <glyph glyph-name="AE" unicode="&#xc6;" horiz-adv-x="887" 
d="M412 409v190h-52l-76 -190h128zM271 678q12 32 48 32h477q41 0 41 -42v-28q0 -41 -41 -41h-255v-186h198q41 0 41 -41v-28q0 -42 -41 -42h-198v-191h270q41 0 41 -41v-28q0 -42 -41 -42h-357q-42 0 -42 42v262h-169l-107 -272q-13 -32 -47 -32h-48q-23 0 -32 13.5t1 34.5
z" />
    <glyph glyph-name="Ccedilla" unicode="&#xc7;" horiz-adv-x="706" 
d="M362 -10q-74 7 -133.5 38.5t-101 80t-64 112.5t-22.5 137q0 77 27 143.5t75.5 115.5t115.5 77t148 28q43 0 79.5 -7.5t65.5 -18t51 -23t36 -22.5q30 -23 8 -58l-18 -29q-20 -33 -57 -10q-23 15 -64 32.5t-96 17.5q-58 0 -102.5 -19.5t-74.5 -53t-45.5 -78t-15.5 -93.5
q0 -50 16 -96t46.5 -81t75 -56t101.5 -21q30 0 56.5 6.5t48.5 15.5t39.5 20t29.5 20q35 26 58 -7l20 -27q24 -32 -6 -58q-14 -12 -36 -26t-51.5 -27t-66 -22.5t-79.5 -11.5l-7 -33q31 -4 52 -22.5t21 -53.5q0 -25 -9.5 -41.5t-24.5 -27t-34.5 -15t-39.5 -4.5q-8 0 -18 1
t-18.5 4.5t-14.5 10t-6 18.5q0 17 6.5 26t14.5 9q7 0 12.5 -1.5t12.5 -1.5q16 0 26.5 7t10.5 22q0 14 -12.5 20.5t-32.5 8.5q-23 2 -15 31z" />
    <glyph glyph-name="Egrave" unicode="&#xc8;" horiz-adv-x="557" 
d="M287 757q-17 0 -28.5 6t-22.5 19l-45 61q-17 20 -11 35t32 15h37q32 0 49 -29l35 -61q10 -17 6 -31.5t-26 -14.5h-26zM82 668q0 42 41 42h342q42 0 42 -42v-28q0 -41 -42 -41h-255v-186h198q42 0 42 -41v-28q0 -42 -42 -42h-198v-191h271q42 0 42 -41v-28q0 -42 -42 -42
h-358q-41 0 -41 42v626z" />
    <glyph glyph-name="Eacute" unicode="&#xc9;" horiz-adv-x="557" 
d="M82 668q0 42 41 42h342q42 0 42 -42v-28q0 -41 -42 -41h-255v-186h198q42 0 42 -41v-28q0 -42 -42 -42h-198v-191h271q42 0 42 -41v-28q0 -42 -42 -42h-358q-41 0 -41 42v626zM298 757q-22 0 -29 13.5t4 33.5l35 60q17 29 49 29h36q27 0 33 -15t-11 -35l-45 -61
q-11 -13 -22.5 -19t-28.5 -6h-21z" />
    <glyph glyph-name="Ecircumflex" unicode="&#xca;" horiz-adv-x="557" 
d="M82 668q0 42 41 42h342q42 0 42 -42v-28q0 -41 -42 -41h-255v-186h198q42 0 42 -41v-28q0 -42 -42 -42h-198v-191h271q42 0 42 -41v-28q0 -42 -42 -42h-358q-41 0 -41 42v626zM199 757q-22 0 -27 14.5t9 36.5l40 58q18 27 51 27h62q33 0 51 -27l40 -58q14 -22 9 -36.5
t-27 -14.5h-26q-18 0 -26.5 7t-17.5 22l-33 52h-2l-34 -52q-8 -15 -17 -22t-26 -7h-26z" />
    <glyph glyph-name="Edieresis" unicode="&#xcb;" horiz-adv-x="557" 
d="M82 668q0 42 41 42h342q42 0 42 -42v-28q0 -41 -42 -41h-255v-186h198q42 0 42 -41v-28q0 -42 -42 -42h-198v-191h271q42 0 42 -41v-28q0 -42 -42 -42h-358q-41 0 -41 42v626zM205 777q-42 0 -42 42v33q0 41 42 41h14q42 0 42 -41v-33q0 -42 -42 -42h-14zM388 777
q-41 0 -41 42v33q0 41 41 41h15q41 0 41 -41v-33q0 -42 -41 -42h-15z" />
    <glyph glyph-name="Igrave" unicode="&#xcc;" horiz-adv-x="292" 
d="M131 757q-17 0 -28.5 6t-22.5 19l-45 61q-17 20 -11 35t32 15h37q32 0 49 -29l35 -61q10 -17 6 -31.5t-26 -14.5h-26zM82 668q0 42 41 42h46q41 0 41 -42v-626q0 -42 -41 -42h-46q-41 0 -41 42v626z" />
    <glyph glyph-name="Iacute" unicode="&#xcd;" horiz-adv-x="292" 
d="M142 757q-22 0 -29 13.5t4 33.5l35 60q17 29 49 29h36q27 0 33 -15t-11 -35l-45 -61q-11 -13 -22.5 -19t-28.5 -6h-21zM82 668q0 42 41 42h46q41 0 41 -42v-626q0 -42 -41 -42h-46q-41 0 -41 42v626z" />
    <glyph glyph-name="Icircumflex" unicode="&#xce;" horiz-adv-x="292" 
d="M43 757q-22 0 -27 14.5t9 36.5l40 58q18 27 51 27h62q33 0 51 -27l40 -58q14 -22 9 -36.5t-27 -14.5h-26q-18 0 -26.5 7t-17.5 22l-33 52h-2l-34 -52q-8 -15 -17 -22t-26 -7h-26zM82 668q0 42 41 42h46q41 0 41 -42v-626q0 -42 -41 -42h-46q-41 0 -41 42v626z" />
    <glyph glyph-name="Idieresis" unicode="&#xcf;" horiz-adv-x="292" 
d="M49 777q-42 0 -42 42v33q0 41 42 41h14q42 0 42 -41v-33q0 -42 -42 -42h-14zM232 777q-41 0 -41 42v33q0 41 41 41h15q41 0 41 -41v-33q0 -42 -41 -42h-15zM82 668q0 42 41 42h46q41 0 41 -42v-626q0 -42 -41 -42h-46q-41 0 -41 42v626z" />
    <glyph glyph-name="Eth" unicode="&#xd0;" horiz-adv-x="729" 
d="M318 111q108 0 172 62.5t64 182.5q0 59 -17 104.5t-48 76t-74.5 46.5t-96.5 16h-107v-193h91q41 0 41 -42v-21q0 -42 -39 -42h-93v-190h107zM83 301h-16q-42 0 -42 42v21q0 42 25 42h33v262q0 42 42 42h200q82 0 149 -24t114 -69t73 -111t26 -150t-26 -150t-73 -112
t-114 -70t-149 -24h-200q-42 0 -42 42v259z" />
    <glyph glyph-name="Ntilde" unicode="&#xd1;" horiz-adv-x="743" 
d="M230 758q-36 0 -36 38q0 20 7.5 38t20.5 31.5t31.5 21.5t41.5 8q28 0 47 -10t34 -22.5t27.5 -22.5t28.5 -10q17 0 25 11t10 28q2 23 36 23h10q37 0 37 -34q0 -46 -28 -74.5t-73 -28.5q-29 0 -48 10t-33.5 22.5t-27 22.5t-28.5 10q-17 0 -26.5 -11.5t-11.5 -28.5
q-3 -22 -34 -22h-10zM82 668q0 42 41 42h54q35 0 50 -28l252 -382q10 -16 21 -35t19 -36q10 -19 19 -39h2q-2 20 -4 39q-2 17 -2.5 36t-0.5 35v368q0 42 42 42h45q42 0 42 -42v-626q0 -42 -42 -42h-54q-34 0 -49 28l-253 381q-10 16 -20.5 35t-18.5 36q-11 19 -20 39h-2
q1 -20 3 -39q2 -17 3 -36t1 -35v-367q0 -42 -41 -42h-46q-41 0 -41 42v626z" />
    <glyph glyph-name="Ograve" unicode="&#xd2;" horiz-adv-x="814" 
d="M390 757q-17 0 -28.5 6t-22.5 19l-45 61q-17 20 -11 35t32 15h37q32 0 49 -29l35 -61q10 -17 6 -31.5t-26 -14.5h-26zM173 360q0 -54 17.5 -100.5t48.5 -80.5t74 -53.5t94 -19.5t94 19.5t74 53.5t48.5 80.5t17.5 100.5q0 52 -17.5 96.5t-48.5 77.5t-74 51.5t-94 18.5
t-94 -18.5t-74 -51.5t-48.5 -77.5t-17.5 -96.5zM40 360q0 76 27 142t76 115t116 77t148 28t148 -28t116 -77t76 -115t27 -142q0 -78 -27 -146t-76 -118.5t-116 -79t-148 -28.5t-148 28.5t-116 79t-76 118.5t-27 146z" />
    <glyph glyph-name="Oacute" unicode="&#xd3;" horiz-adv-x="814" 
d="M173 360q0 -54 17.5 -100.5t48.5 -80.5t74 -53.5t94 -19.5t94 19.5t74 53.5t48.5 80.5t17.5 100.5q0 52 -17.5 96.5t-48.5 77.5t-74 51.5t-94 18.5t-94 -18.5t-74 -51.5t-48.5 -77.5t-17.5 -96.5zM40 360q0 76 27 142t76 115t116 77t148 28t148 -28t116 -77t76 -115
t27 -142q0 -78 -27 -146t-76 -118.5t-116 -79t-148 -28.5t-148 28.5t-116 79t-76 118.5t-27 146zM402 757q-22 0 -29 13.5t4 33.5l35 60q17 29 49 29h36q27 0 33 -15t-11 -35l-45 -61q-11 -13 -22.5 -19t-28.5 -6h-21z" />
    <glyph glyph-name="Ocircumflex" unicode="&#xd4;" horiz-adv-x="814" 
d="M173 360q0 -54 17.5 -100.5t48.5 -80.5t74 -53.5t94 -19.5t94 19.5t74 53.5t48.5 80.5t17.5 100.5q0 52 -17.5 96.5t-48.5 77.5t-74 51.5t-94 18.5t-94 -18.5t-74 -51.5t-48.5 -77.5t-17.5 -96.5zM40 360q0 76 27 142t76 115t116 77t148 28t148 -28t116 -77t76 -115
t27 -142q0 -78 -27 -146t-76 -118.5t-116 -79t-148 -28.5t-148 28.5t-116 79t-76 118.5t-27 146zM303 757q-22 0 -27 14.5t9 36.5l40 58q18 27 51 27h62q33 0 51 -27l40 -58q14 -22 9 -36.5t-27 -14.5h-26q-18 0 -26.5 7t-17.5 22l-33 52h-2l-34 -52q-8 -15 -17 -22t-26 -7
h-26z" />
    <glyph glyph-name="Otilde" unicode="&#xd5;" horiz-adv-x="814" 
d="M265 758q-36 0 -36 38q0 20 7.5 38t20.5 31.5t31.5 21.5t41.5 8q28 0 47 -10t34 -22.5t27.5 -22.5t28.5 -10q17 0 25 11t10 28q2 23 36 23h10q37 0 37 -34q0 -46 -28 -74.5t-73 -28.5q-29 0 -48 10t-33.5 22.5t-27 22.5t-28.5 10q-17 0 -26.5 -11.5t-11.5 -28.5
q-3 -22 -34 -22h-10zM173 360q0 -54 17.5 -100.5t48.5 -80.5t74 -53.5t94 -19.5t94 19.5t74 53.5t48.5 80.5t17.5 100.5q0 52 -17.5 96.5t-48.5 77.5t-74 51.5t-94 18.5t-94 -18.5t-74 -51.5t-48.5 -77.5t-17.5 -96.5zM40 360q0 76 27 142t76 115t116 77t148 28t148 -28
t116 -77t76 -115t27 -142q0 -78 -27 -146t-76 -118.5t-116 -79t-148 -28.5t-148 28.5t-116 79t-76 118.5t-27 146z" />
    <glyph glyph-name="Odieresis" unicode="&#xd6;" horiz-adv-x="814" 
d="M173 360q0 -54 17.5 -100.5t48.5 -80.5t74 -53.5t94 -19.5t94 19.5t74 53.5t48.5 80.5t17.5 100.5q0 52 -17.5 96.5t-48.5 77.5t-74 51.5t-94 18.5t-94 -18.5t-74 -51.5t-48.5 -77.5t-17.5 -96.5zM40 360q0 76 27 142t76 115t116 77t148 28t148 -28t116 -77t76 -115
t27 -142q0 -78 -27 -146t-76 -118.5t-116 -79t-148 -28.5t-148 28.5t-116 79t-76 118.5t-27 146zM308 777q-42 0 -42 42v33q0 41 42 41h14q42 0 42 -41v-33q0 -42 -42 -42h-14zM491 777q-41 0 -41 42v33q0 41 41 41h15q41 0 41 -41v-33q0 -42 -41 -42h-15z" />
    <glyph glyph-name="multiply" unicode="&#xd7;" 
d="M74 41q-28 28 -1 59l169 186l-169 186q-27 31 1 59l10 11q31 30 59 -1l166 -183l166 183q28 31 59 1l11 -11q28 -28 1 -59l-170 -186l170 -186q27 -31 -1 -59l-11 -11q-31 -31 -59 1l-166 182l-166 -182q-28 -32 -59 -1z" />
    <glyph glyph-name="Oslash" unicode="&#xd8;" horiz-adv-x="813" 
d="M288 140q54 -34 119 -34q49 0 91.5 19t74 53t50 80.5t18.5 100.5q0 53 -18.5 97.5t-50.5 76.5zM516 575q-24 14 -51.5 21.5t-57.5 7.5q-49 0 -91.5 -18.5t-74 -51t-50 -77.5t-18.5 -98q0 -52 17 -96.5t46 -76.5zM160 81q-56 51 -88 122t-32 156q0 76 28 142.5t77 115.5
t116.5 77t145.5 28q51 0 96.5 -12t85.5 -34l19 28q25 32 54 13q27 -21 11 -42l-26 -38q59 -50 93 -121t34 -157q0 -78 -28 -145.5t-77 -118t-116.5 -79t-145.5 -28.5q-105 0 -191 52l-22 -33q-25 -33 -54 -13t-9 46z" />
    <glyph glyph-name="Ugrave" unicode="&#xd9;" horiz-adv-x="719" 
d="M342 757q-17 0 -28.5 6t-22.5 19l-45 61q-17 20 -11 35t32 15h37q32 0 49 -29l35 -61q10 -17 6 -31.5t-26 -14.5h-26zM74 668q0 42 41 42h45q42 0 42 -42v-412q0 -72 42.5 -111t114.5 -39t115 39t43 111v412q0 42 41 42h46q41 0 41 -42v-413q0 -60 -20.5 -109t-58 -84
t-90 -54.5t-116.5 -19.5q-65 0 -117.5 19.5t-90 54.5t-58 84t-20.5 109v413z" />
    <glyph glyph-name="Uacute" unicode="&#xda;" horiz-adv-x="719" 
d="M74 668q0 42 41 42h45q42 0 42 -42v-412q0 -72 42.5 -111t114.5 -39t115 39t43 111v412q0 42 41 42h46q41 0 41 -42v-413q0 -60 -20.5 -109t-58 -84t-90 -54.5t-116.5 -19.5q-65 0 -117.5 19.5t-90 54.5t-58 84t-20.5 109v413zM354 757q-22 0 -29 13.5t4 33.5l35 60
q17 29 49 29h36q27 0 33 -15t-11 -35l-45 -61q-11 -13 -22.5 -19t-28.5 -6h-21z" />
    <glyph glyph-name="Ucircumflex" unicode="&#xdb;" horiz-adv-x="719" 
d="M74 668q0 42 41 42h45q42 0 42 -42v-412q0 -72 42.5 -111t114.5 -39t115 39t43 111v412q0 42 41 42h46q41 0 41 -42v-413q0 -60 -20.5 -109t-58 -84t-90 -54.5t-116.5 -19.5q-65 0 -117.5 19.5t-90 54.5t-58 84t-20.5 109v413zM255 757q-22 0 -27 14.5t9 36.5l40 58
q18 27 51 27h62q33 0 51 -27l40 -58q14 -22 9 -36.5t-27 -14.5h-26q-18 0 -26.5 7t-17.5 22l-33 52h-2l-34 -52q-8 -15 -17 -22t-26 -7h-26z" />
    <glyph glyph-name="Udieresis" unicode="&#xdc;" horiz-adv-x="719" 
d="M74 668q0 42 41 42h45q42 0 42 -42v-412q0 -72 42.5 -111t114.5 -39t115 39t43 111v412q0 42 41 42h46q41 0 41 -42v-413q0 -60 -20.5 -109t-58 -84t-90 -54.5t-116.5 -19.5q-65 0 -117.5 19.5t-90 54.5t-58 84t-20.5 109v413zM261 777q-42 0 -42 42v33q0 41 42 41h14
q42 0 42 -41v-33q0 -42 -42 -42h-14zM444 777q-41 0 -41 42v33q0 41 41 41h15q41 0 41 -41v-33q0 -42 -41 -42h-15z" />
    <glyph glyph-name="Yacute" unicode="&#xdd;" horiz-adv-x="580" 
d="M285 757q-22 0 -29 13.5t4 33.5l35 60q17 29 49 29h36q27 0 33 -15t-11 -35l-45 -61q-11 -13 -22.5 -19t-28.5 -6h-21zM226 297l-208 363q-13 21 -4.5 35.5t32.5 14.5h56q33 0 48 -31l96 -178q8 -17 16 -33.5t14 -30.5q7 -16 13 -31h2q6 15 13 31q6 14 14 30.5t16 33.5
l96 178q15 31 48 31h56q25 0 33 -14.5t-4 -35.5l-209 -363v-255q0 -42 -41 -42h-45q-42 0 -42 42v255z" />
    <glyph glyph-name="Thorn" unicode="&#xde;" horiz-adv-x="606" 
d="M331 242q57 0 88 33t31 89t-30.5 88t-86.5 32h-123v-242h121zM82 668q0 42 41 42h46q41 0 41 -41v-74h145q50 0 91.5 -16.5t71.5 -47t46.5 -73t16.5 -94.5t-16.5 -95t-46.5 -73.5t-72 -47.5t-92 -17h-144v-89q0 -42 -41 -42h-46q-41 0 -41 42v626z" />
    <glyph glyph-name="germandbls" unicode="&#xdf;" horiz-adv-x="597" 
d="M63 529q0 47 20 83t52.5 60.5t74 37t85.5 12.5q43 0 80.5 -13t65.5 -36.5t44 -55.5t16 -69q0 -34 -14 -57.5t-30.5 -42.5t-30.5 -36.5t-14 -39.5q0 -15 12 -27.5t30 -26.5t38.5 -29.5t38.5 -34.5t30 -43.5t12 -56.5q0 -41 -15 -71t-40 -50t-57.5 -30t-67.5 -10t-60.5 5
t-40.5 10q-18 4 -26 16t-8 30v25q0 44 38 35q14 -5 34 -9t45 -4q27 0 48.5 13.5t21.5 46.5q0 17 -12 31t-30 28.5t-38.5 29t-38.5 32t-30 39t-12 48.5q0 30 14 52t30.5 41.5t30.5 39.5t14 44q0 26 -21 47t-61 21q-20 0 -38 -5.5t-32 -17t-22.5 -29t-8.5 -42.5v-478
q0 -42 -42 -42h-43q-42 0 -42 42v487z" />
    <glyph glyph-name="agrave" unicode="&#xe0;" horiz-adv-x="525" 
d="M247 574q-17 0 -28.5 6t-22.5 19l-45 61q-17 20 -11 35t32 15h37q32 0 49 -29l35 -61q10 -17 6 -31.5t-26 -14.5h-26zM150 152q0 -26 19.5 -46.5t57.5 -20.5q27 0 48.5 12t36.5 31.5t23.5 43.5t8.5 47v19h-21q-24 0 -54 -3t-56.5 -12t-44.5 -26t-18 -45zM24 141
q0 37 14 64.5t38 47t54.5 31.5t63.5 19t66 9.5t62 2.5h21v12q0 50 -28 70t-67 20q-32 0 -60 -9.5t-46 -19.5q-39 -17 -56 17l-10 19q-19 37 16 56q25 13 67.5 27.5t99.5 14.5q100 0 155.5 -53t55.5 -150v-277q0 -42 -42 -42h-34q-41 0 -41 42v20q0 12 1 16q0 4 1 6h-2
q-15 -27 -38 -48q-20 -18 -50 -33t-72 -15q-35 0 -65.5 11t-53.5 31t-36.5 48t-13.5 63z" />
    <glyph glyph-name="aacute" unicode="&#xe1;" horiz-adv-x="525" 
d="M256 574q-22 0 -29 13.5t4 33.5l35 60q17 29 49 29h36q27 0 33 -15t-11 -35l-45 -61q-11 -13 -22.5 -19t-28.5 -6h-21zM150 152q0 -26 19.5 -46.5t57.5 -20.5q27 0 48.5 12t36.5 31.5t23.5 43.5t8.5 47v19h-21q-24 0 -54 -3t-56.5 -12t-44.5 -26t-18 -45zM24 141
q0 37 14 64.5t38 47t54.5 31.5t63.5 19t66 9.5t62 2.5h21v12q0 50 -28 70t-67 20q-32 0 -60 -9.5t-46 -19.5q-39 -17 -56 17l-10 19q-19 37 16 56q25 13 67.5 27.5t99.5 14.5q100 0 155.5 -53t55.5 -150v-277q0 -42 -42 -42h-34q-41 0 -41 42v20q0 12 1 16q0 4 1 6h-2
q-15 -27 -38 -48q-20 -18 -50 -33t-72 -15q-35 0 -65.5 11t-53.5 31t-36.5 48t-13.5 63z" />
    <glyph glyph-name="acircumflex" unicode="&#xe2;" horiz-adv-x="525" 
d="M158 574q-22 0 -27 14.5t9 36.5l40 58q18 27 51 27h62q33 0 51 -27l40 -58q14 -22 9 -36.5t-27 -14.5h-26q-18 0 -26.5 7t-17.5 22l-33 52h-2l-34 -52q-8 -15 -17 -22t-26 -7h-26zM150 152q0 -26 19.5 -46.5t57.5 -20.5q27 0 48.5 12t36.5 31.5t23.5 43.5t8.5 47v19h-21
q-24 0 -54 -3t-56.5 -12t-44.5 -26t-18 -45zM24 141q0 37 14 64.5t38 47t54.5 31.5t63.5 19t66 9.5t62 2.5h21v12q0 50 -28 70t-67 20q-32 0 -60 -9.5t-46 -19.5q-39 -17 -56 17l-10 19q-19 37 16 56q25 13 67.5 27.5t99.5 14.5q100 0 155.5 -53t55.5 -150v-277
q0 -42 -42 -42h-34q-41 0 -41 42v20q0 12 1 16q0 4 1 6h-2q-15 -27 -38 -48q-20 -18 -50 -33t-72 -15q-35 0 -65.5 11t-53.5 31t-36.5 48t-13.5 63z" />
    <glyph glyph-name="atilde" unicode="&#xe3;" horiz-adv-x="525" 
d="M120 575q-36 0 -36 38q0 20 7.5 38t20.5 31.5t31.5 21.5t41.5 8q28 0 47 -10t34 -22.5t27.5 -22.5t28.5 -10q17 0 25 11t10 28q2 23 36 23h10q37 0 37 -34q0 -46 -28 -74.5t-73 -28.5q-29 0 -48 10t-33.5 22.5t-27 22.5t-28.5 10q-17 0 -26.5 -11.5t-11.5 -28.5
q-3 -22 -34 -22h-10zM150 152q0 -26 19.5 -46.5t57.5 -20.5q27 0 48.5 12t36.5 31.5t23.5 43.5t8.5 47v19h-21q-24 0 -54 -3t-56.5 -12t-44.5 -26t-18 -45zM24 141q0 37 14 64.5t38 47t54.5 31.5t63.5 19t66 9.5t62 2.5h21v12q0 50 -28 70t-67 20q-32 0 -60 -9.5t-46 -19.5
q-39 -17 -56 17l-10 19q-19 37 16 56q25 13 67.5 27.5t99.5 14.5q100 0 155.5 -53t55.5 -150v-277q0 -42 -42 -42h-34q-41 0 -41 42v20q0 12 1 16q0 4 1 6h-2q-15 -27 -38 -48q-20 -18 -50 -33t-72 -15q-35 0 -65.5 11t-53.5 31t-36.5 48t-13.5 63z" />
    <glyph glyph-name="adieresis" unicode="&#xe4;" horiz-adv-x="525" 
d="M163 594q-42 0 -42 42v33q0 41 42 41h14q42 0 42 -41v-33q0 -42 -42 -42h-14zM346 594q-41 0 -41 42v33q0 41 41 41h15q41 0 41 -41v-33q0 -42 -41 -42h-15zM150 152q0 -26 19.5 -46.5t57.5 -20.5q27 0 48.5 12t36.5 31.5t23.5 43.5t8.5 47v19h-21q-24 0 -54 -3
t-56.5 -12t-44.5 -26t-18 -45zM24 141q0 37 14 64.5t38 47t54.5 31.5t63.5 19t66 9.5t62 2.5h21v12q0 50 -28 70t-67 20q-32 0 -60 -9.5t-46 -19.5q-39 -17 -56 17l-10 19q-19 37 16 56q25 13 67.5 27.5t99.5 14.5q100 0 155.5 -53t55.5 -150v-277q0 -42 -42 -42h-34
q-41 0 -41 42v20q0 12 1 16q0 4 1 6h-2q-15 -27 -38 -48q-20 -18 -50 -33t-72 -15q-35 0 -65.5 11t-53.5 31t-36.5 48t-13.5 63z" />
    <glyph glyph-name="aring" unicode="&#xe5;" horiz-adv-x="525" 
d="M262 606q15 0 24.5 9.5t9.5 24.5q0 16 -9.5 25.5t-24.5 9.5t-24.5 -9.5t-9.5 -25.5q0 -15 9 -24.5t25 -9.5zM262 562q-18 0 -35 5t-30.5 15t-21.5 24.5t-8 33.5t8 34t21.5 25t30.5 15t35 5t34.5 -5t30 -15t21.5 -25t8 -34t-8 -33.5t-21.5 -24.5t-30 -15t-34.5 -5z
M150 152q0 -26 19.5 -46.5t57.5 -20.5q27 0 48.5 12t36.5 31.5t23.5 43.5t8.5 47v19h-21q-24 0 -54 -3t-56.5 -12t-44.5 -26t-18 -45zM24 141q0 37 14 64.5t38 47t54.5 31.5t63.5 19t66 9.5t62 2.5h21v12q0 50 -28 70t-67 20q-32 0 -60 -9.5t-46 -19.5q-39 -17 -56 17
l-10 19q-19 37 16 56q25 13 67.5 27.5t99.5 14.5q100 0 155.5 -53t55.5 -150v-277q0 -42 -42 -42h-34q-41 0 -41 42v20q0 12 1 16q0 4 1 6h-2q-15 -27 -38 -48q-20 -18 -50 -33t-72 -15q-35 0 -65.5 11t-53.5 31t-36.5 48t-13.5 63z" />
    <glyph glyph-name="ae" unicode="&#xe6;" horiz-adv-x="847" 
d="M154 153q0 -26 19 -46t59 -20q26 0 47 12t36 31.5t23 43.5t8 48v15h-35q-26 0 -53.5 -3.5t-50.5 -12.5t-38 -25.5t-15 -42.5zM690 315q-2 51 -30.5 79.5t-68.5 28.5q-49 0 -80 -28.5t-41 -79.5h220zM26 147q0 39 15.5 67t41.5 46.5t58 29.5t66 16.5t65.5 7t55.5 1.5h16
v12q0 50 -27.5 70t-70.5 20q-31 0 -58 -9.5t-45 -19.5q-39 -17 -57 17l-9 18q-9 17 -5.5 32t20.5 24q24 14 65.5 28.5t97.5 14.5q66 0 105 -20t61 -55h2q61 75 169 75q54 0 96.5 -18.5t71 -50.5t43.5 -76.5t15 -96.5q0 -16 -12.5 -29.5t-31.5 -13.5h-308q3 -36 16 -62.5
t33 -44t46 -26t55 -8.5q35 0 63.5 11t46.5 22q39 19 57 -15l10 -19q20 -36 -13 -56q-25 -16 -69 -33.5t-104 -17.5q-76 0 -129 30t-85 82h-2q-4 -9 -16.5 -27.5t-35.5 -37t-57 -32.5t-82 -14q-36 0 -67.5 10.5t-55 31t-37.5 49.5t-14 67z" />
    <glyph glyph-name="ccedilla" unicode="&#xe7;" horiz-adv-x="533" 
d="M260 -8q-53 7 -95 30.5t-71.5 58.5t-45.5 79.5t-16 94.5q0 54 19.5 102.5t55.5 85t87.5 58t114.5 21.5q62 0 103 -17.5t64 -33.5q16 -11 17.5 -25.5t-9.5 -31.5l-13 -20q-11 -17 -24.5 -18.5t-31.5 7.5q-16 11 -41 21t-58 10q-35 0 -64 -12.5t-49 -34t-31 -50t-11 -61.5
q0 -32 11 -61t31.5 -51t50 -35t66.5 -13q38 0 67 13t47 26q38 21 57 -13l10 -19q19 -35 -11 -56q-22 -17 -64 -36t-102 -22l-7 -33q31 -4 52 -22.5t21 -53.5q0 -25 -9.5 -41.5t-24.5 -27t-34.5 -15t-39.5 -4.5q-8 0 -18 1t-18.5 4.5t-14.5 10t-6 18.5q0 17 6.5 26t14.5 9
q7 0 12.5 -1.5t12.5 -1.5q16 0 26.5 7t10.5 22q0 14 -12.5 20.5t-32.5 8.5q-23 2 -15 31z" />
    <glyph glyph-name="egrave" unicode="&#xe8;" horiz-adv-x="546" 
d="M274 574q-17 0 -28.5 6t-22.5 19l-45 61q-17 20 -11 35t32 15h37q32 0 49 -29l35 -61q10 -17 6 -31.5t-26 -14.5h-26zM391 313q-2 54 -30.5 83.5t-72.5 29.5q-49 0 -81.5 -31t-41.5 -82h226zM32 255q0 59 19 108t53 84.5t82 55t105 19.5q54 0 96.5 -18.5t71 -50.5
t43.5 -77t15 -97q0 -17 -12.5 -30t-31.5 -13h-311q3 -35 16.5 -61t34 -43.5t47 -26.5t55.5 -9q35 0 63.5 11t46.5 22q19 9 32.5 6t23.5 -20l12 -20q19 -36 -14 -56q-25 -16 -69 -33.5t-104 -17.5q-63 0 -114 21.5t-86.5 58t-54.5 85t-19 102.5z" />
    <glyph glyph-name="eacute" unicode="&#xe9;" horiz-adv-x="546" 
d="M391 313q-2 54 -30.5 83.5t-72.5 29.5q-49 0 -81.5 -31t-41.5 -82h226zM32 255q0 59 19 108t53 84.5t82 55t105 19.5q54 0 96.5 -18.5t71 -50.5t43.5 -77t15 -97q0 -17 -12.5 -30t-31.5 -13h-311q3 -35 16.5 -61t34 -43.5t47 -26.5t55.5 -9q35 0 63.5 11t46.5 22
q19 9 32.5 6t23.5 -20l12 -20q19 -36 -14 -56q-25 -16 -69 -33.5t-104 -17.5q-63 0 -114 21.5t-86.5 58t-54.5 85t-19 102.5zM283 574q-22 0 -29 13.5t4 33.5l35 60q17 29 49 29h36q27 0 33 -15t-11 -35l-45 -61q-11 -13 -22.5 -19t-28.5 -6h-21z" />
    <glyph glyph-name="ecircumflex" unicode="&#xea;" horiz-adv-x="546" 
d="M391 313q-2 54 -30.5 83.5t-72.5 29.5q-49 0 -81.5 -31t-41.5 -82h226zM32 255q0 59 19 108t53 84.5t82 55t105 19.5q54 0 96.5 -18.5t71 -50.5t43.5 -77t15 -97q0 -17 -12.5 -30t-31.5 -13h-311q3 -35 16.5 -61t34 -43.5t47 -26.5t55.5 -9q35 0 63.5 11t46.5 22
q19 9 32.5 6t23.5 -20l12 -20q19 -36 -14 -56q-25 -16 -69 -33.5t-104 -17.5q-63 0 -114 21.5t-86.5 58t-54.5 85t-19 102.5zM184 574q-22 0 -27 14.5t9 36.5l40 58q18 27 51 27h62q33 0 51 -27l40 -58q14 -22 9 -36.5t-27 -14.5h-26q-18 0 -26.5 7t-17.5 22l-33 52h-2
l-34 -52q-8 -15 -17 -22t-26 -7h-26z" />
    <glyph glyph-name="edieresis" unicode="&#xeb;" horiz-adv-x="546" 
d="M391 313q-2 54 -30.5 83.5t-72.5 29.5q-49 0 -81.5 -31t-41.5 -82h226zM32 255q0 59 19 108t53 84.5t82 55t105 19.5q54 0 96.5 -18.5t71 -50.5t43.5 -77t15 -97q0 -17 -12.5 -30t-31.5 -13h-311q3 -35 16.5 -61t34 -43.5t47 -26.5t55.5 -9q35 0 63.5 11t46.5 22
q19 9 32.5 6t23.5 -20l12 -20q19 -36 -14 -56q-25 -16 -69 -33.5t-104 -17.5q-63 0 -114 21.5t-86.5 58t-54.5 85t-19 102.5zM190 594q-42 0 -42 42v33q0 41 42 41h14q42 0 42 -41v-33q0 -42 -42 -42h-14zM373 594q-41 0 -41 42v33q0 41 41 41h15q41 0 41 -41v-33
q0 -42 -41 -42h-15z" />
    <glyph glyph-name="igrave" unicode="&#xec;" horiz-adv-x="252" 
d="M110 574q-17 0 -28.5 6t-22.5 19l-45 61q-17 20 -11 35t32 15h37q32 0 49 -29l35 -61q10 -17 6 -31.5t-26 -14.5h-26zM63 468q0 42 41 42h44q41 0 41 -42v-426q0 -42 -41 -42h-44q-41 0 -41 42v426z" />
    <glyph glyph-name="iacute" unicode="&#xed;" horiz-adv-x="252" 
d="M63 468q0 42 41 42h44q41 0 41 -42v-426q0 -42 -41 -42h-44q-41 0 -41 42v426zM122 574q-22 0 -29 13.5t4 33.5l35 60q17 29 49 29h36q27 0 33 -15t-11 -35l-45 -61q-11 -13 -22.5 -19t-28.5 -6h-21z" />
    <glyph glyph-name="icircumflex" unicode="&#xee;" horiz-adv-x="252" 
d="M63 468q0 42 41 42h44q41 0 41 -42v-426q0 -42 -41 -42h-44q-41 0 -41 42v426zM23 574q-22 0 -27 14.5t9 36.5l40 58q18 27 51 27h62q33 0 51 -27l40 -58q14 -22 9 -36.5t-27 -14.5h-26q-18 0 -26.5 7t-17.5 22l-33 52h-2l-34 -52q-8 -15 -17 -22t-26 -7h-26z" />
    <glyph glyph-name="idieresis" unicode="&#xef;" horiz-adv-x="252" 
d="M63 468q0 42 41 42h44q41 0 41 -42v-426q0 -42 -41 -42h-44q-41 0 -41 42v426zM28 594q-42 0 -42 42v33q0 41 42 41h14q42 0 42 -41v-33q0 -42 -42 -42h-14zM211 594q-41 0 -41 42v33q0 41 41 41h15q41 0 41 -41v-33q0 -42 -41 -42h-15z" />
    <glyph glyph-name="eth" unicode="&#xf0;" horiz-adv-x="579" 
d="M161 234q0 -26 7 -51t22 -44.5t37.5 -31.5t52.5 -12q35 0 59.5 14.5t40 37.5t22.5 51.5t7 56.5q0 48 -31.5 79.5t-86.5 31.5q-33 0 -57.5 -11t-40.5 -29.5t-24 -42.5t-8 -49zM33 237q0 44 15.5 85.5t45.5 73t74 50.5t100 19q26 0 46 -5.5t34 -12.5q16 -8 27 -17h2
q-14 34 -40.5 62.5t-58.5 49.5l-138 -60q-21 -9 -30.5 -6.5t-16.5 18.5l-5 12q-7 16 0 25.5t24 16.5l86 38q-17 9 -35.5 16t-38.5 12q-40 14 -27 53l7 22q14 39 52 28q48 -13 92.5 -31t85.5 -43l101 44q21 8 30.5 4.5t14.5 -15.5l7 -15q7 -14 0 -23t-23 -16l-64 -29
q62 -54 99.5 -132t37.5 -183q0 -51 -14 -102.5t-45 -93.5t-80.5 -68t-120.5 -26q-59 0 -104 21t-76.5 56t-47.5 79.5t-16 92.5z" />
    <glyph glyph-name="ntilde" unicode="&#xf1;" horiz-adv-x="599" 
d="M167 575q-36 0 -36 38q0 20 7.5 38t20.5 31.5t31.5 21.5t41.5 8q28 0 47 -10t34 -22.5t27.5 -22.5t28.5 -10q17 0 25 11t10 28q2 23 36 23h10q37 0 37 -34q0 -46 -28 -74.5t-73 -28.5q-29 0 -48 10t-33.5 22.5t-27 22.5t-28.5 10q-17 0 -26.5 -11.5t-11.5 -28.5
q-3 -22 -34 -22h-10zM63 468q0 42 41 42h39q41 0 41 -42v-31q0 -5 -0.5 -9t-0.5 -7q-1 -4 -1 -7h2q8 16 23 35t37 35t52 27t69 11q85 0 131.5 -46t46.5 -148v-286q0 -42 -42 -42h-43q-42 0 -42 42v260q0 47 -16 75.5t-64 28.5q-34 0 -61 -13t-46 -36t-29.5 -53.5
t-10.5 -64.5v-197q0 -42 -41 -42h-44q-41 0 -41 42v426z" />
    <glyph glyph-name="ograve" unicode="&#xf2;" horiz-adv-x="622" 
d="M294 574q-17 0 -28.5 6t-22.5 19l-45 61q-17 20 -11 35t32 15h37q32 0 49 -29l35 -61q10 -17 6 -31.5t-26 -14.5h-26zM160 255q0 -36 12 -65t32.5 -50t48 -32.5t58.5 -11.5t58.5 11.5t48.5 32.5t33 50t12 65q0 35 -12 64.5t-33 50.5t-48.5 32.5t-58.5 11.5t-58.5 -11.5
t-48 -32.5t-32.5 -50.5t-12 -64.5zM31 255q0 58 22 107.5t60 84.5t89 55t109 20t109 -20t89.5 -55t60.5 -84.5t22 -107.5q0 -59 -22 -108t-60.5 -84.5t-89.5 -55t-109 -19.5t-109 19.5t-89 55t-60 84.5t-22 108z" />
    <glyph glyph-name="oacute" unicode="&#xf3;" horiz-adv-x="622" 
d="M160 255q0 -36 12 -65t32.5 -50t48 -32.5t58.5 -11.5t58.5 11.5t48.5 32.5t33 50t12 65q0 35 -12 64.5t-33 50.5t-48.5 32.5t-58.5 11.5t-58.5 -11.5t-48 -32.5t-32.5 -50.5t-12 -64.5zM31 255q0 58 22 107.5t60 84.5t89 55t109 20t109 -20t89.5 -55t60.5 -84.5
t22 -107.5q0 -59 -22 -108t-60.5 -84.5t-89.5 -55t-109 -19.5t-109 19.5t-89 55t-60 84.5t-22 108zM306 574q-22 0 -29 13.5t4 33.5l35 60q17 29 49 29h36q27 0 33 -15t-11 -35l-45 -61q-11 -13 -22.5 -19t-28.5 -6h-21z" />
    <glyph glyph-name="ocircumflex" unicode="&#xf4;" horiz-adv-x="622" 
d="M160 255q0 -36 12 -65t32.5 -50t48 -32.5t58.5 -11.5t58.5 11.5t48.5 32.5t33 50t12 65q0 35 -12 64.5t-33 50.5t-48.5 32.5t-58.5 11.5t-58.5 -11.5t-48 -32.5t-32.5 -50.5t-12 -64.5zM31 255q0 58 22 107.5t60 84.5t89 55t109 20t109 -20t89.5 -55t60.5 -84.5
t22 -107.5q0 -59 -22 -108t-60.5 -84.5t-89.5 -55t-109 -19.5t-109 19.5t-89 55t-60 84.5t-22 108zM207 574q-22 0 -27 14.5t9 36.5l40 58q18 27 51 27h62q33 0 51 -27l40 -58q14 -22 9 -36.5t-27 -14.5h-26q-18 0 -26.5 7t-17.5 22l-33 52h-2l-34 -52q-8 -15 -17 -22
t-26 -7h-26z" />
    <glyph glyph-name="otilde" unicode="&#xf5;" horiz-adv-x="622" 
d="M169 575q-36 0 -36 38q0 20 7.5 38t20.5 31.5t31.5 21.5t41.5 8q28 0 47 -10t34 -22.5t27.5 -22.5t28.5 -10q17 0 25 11t10 28q2 23 36 23h10q37 0 37 -34q0 -46 -28 -74.5t-73 -28.5q-29 0 -48 10t-33.5 22.5t-27 22.5t-28.5 10q-17 0 -26.5 -11.5t-11.5 -28.5
q-3 -22 -34 -22h-10zM160 255q0 -36 12 -65t32.5 -50t48 -32.5t58.5 -11.5t58.5 11.5t48.5 32.5t33 50t12 65q0 35 -12 64.5t-33 50.5t-48.5 32.5t-58.5 11.5t-58.5 -11.5t-48 -32.5t-32.5 -50.5t-12 -64.5zM31 255q0 58 22 107.5t60 84.5t89 55t109 20t109 -20t89.5 -55
t60.5 -84.5t22 -107.5q0 -59 -22 -108t-60.5 -84.5t-89.5 -55t-109 -19.5t-109 19.5t-89 55t-60 84.5t-22 108z" />
    <glyph glyph-name="odieresis" unicode="&#xf6;" horiz-adv-x="622" 
d="M160 255q0 -36 12 -65t32.5 -50t48 -32.5t58.5 -11.5t58.5 11.5t48.5 32.5t33 50t12 65q0 35 -12 64.5t-33 50.5t-48.5 32.5t-58.5 11.5t-58.5 -11.5t-48 -32.5t-32.5 -50.5t-12 -64.5zM31 255q0 58 22 107.5t60 84.5t89 55t109 20t109 -20t89.5 -55t60.5 -84.5
t22 -107.5q0 -59 -22 -108t-60.5 -84.5t-89.5 -55t-109 -19.5t-109 19.5t-89 55t-60 84.5t-22 108zM212 594q-42 0 -42 42v33q0 41 42 41h14q42 0 42 -41v-33q0 -42 -42 -42h-14zM395 594q-41 0 -41 42v33q0 41 41 41h15q41 0 41 -41v-33q0 -42 -41 -42h-15z" />
    <glyph glyph-name="divide" unicode="&#xf7;" 
d="M252 93q0 42 42 42h31q42 0 42 -42v-25q0 -41 -42 -41h-31q-42 0 -42 41v25zM91 236q-42 0 -42 42v15q0 42 42 42h438q41 0 41 -42v-15q0 -42 -41 -42h-438zM294 437q-42 0 -42 41v25q0 42 42 42h31q42 0 42 -42v-25q0 -41 -42 -41h-31z" />
    <glyph glyph-name="oslash" unicode="&#xf8;" horiz-adv-x="623" 
d="M253 108q27 -12 59 -12q31 0 58.5 11.5t48.5 32.5t33 50t12 65q0 29 -9 54t-26 45zM378 398q-32 16 -66 16q-31 0 -58.5 -11.5t-48 -32.5t-32.5 -50.5t-12 -64.5q0 -65 38 -106zM128 50q-45 35 -70.5 87.5t-25.5 117.5q0 58 22 107.5t60 84.5t89 55t109 20q71 0 133 -31
l16 23q24 33 52 15q28 -20 11 -42l-23 -32q42 -36 67 -87t25 -113q0 -59 -22 -108t-60.5 -84.5t-89.5 -55t-109 -19.5q-71 0 -126 27l-17 -24q-24 -33 -52 -14q-28 20 -11 42z" />
    <glyph glyph-name="ugrave" unicode="&#xf9;" horiz-adv-x="594" 
d="M279 574q-17 0 -28.5 6t-22.5 19l-45 61q-17 20 -11 35t32 15h37q32 0 49 -29l35 -61q10 -17 6 -31.5t-26 -14.5h-26zM56 468q0 42 42 42h43q42 0 42 -42v-260q0 -47 16 -75.5t63 -28.5q34 0 61 14t45 38t27.5 55t9.5 65v192q0 42 42 42h43q42 0 42 -42v-426
q0 -42 -42 -42h-39q-41 0 -41 42v30v9t1 7q0 4 1 7h-2q-9 -20 -25.5 -39t-39.5 -34t-51 -24.5t-61 -9.5q-82 0 -129.5 45t-47.5 149v286z" />
    <glyph glyph-name="uacute" unicode="&#xfa;" horiz-adv-x="594" 
d="M56 468q0 42 42 42h43q42 0 42 -42v-260q0 -47 16 -75.5t63 -28.5q34 0 61 14t45 38t27.5 55t9.5 65v192q0 42 42 42h43q42 0 42 -42v-426q0 -42 -42 -42h-39q-41 0 -41 42v30v9t1 7q0 4 1 7h-2q-9 -20 -25.5 -39t-39.5 -34t-51 -24.5t-61 -9.5q-82 0 -129.5 45
t-47.5 149v286zM289 574q-22 0 -29 13.5t4 33.5l35 60q17 29 49 29h36q27 0 33 -15t-11 -35l-45 -61q-11 -13 -22.5 -19t-28.5 -6h-21z" />
    <glyph glyph-name="ucircumflex" unicode="&#xfb;" horiz-adv-x="594" 
d="M56 468q0 42 42 42h43q42 0 42 -42v-260q0 -47 16 -75.5t63 -28.5q34 0 61 14t45 38t27.5 55t9.5 65v192q0 42 42 42h43q42 0 42 -42v-426q0 -42 -42 -42h-39q-41 0 -41 42v30v9t1 7q0 4 1 7h-2q-9 -20 -25.5 -39t-39.5 -34t-51 -24.5t-61 -9.5q-82 0 -129.5 45
t-47.5 149v286zM190 574q-22 0 -27 14.5t9 36.5l40 58q18 27 51 27h62q33 0 51 -27l40 -58q14 -22 9 -36.5t-27 -14.5h-26q-18 0 -26.5 7t-17.5 22l-33 52h-2l-34 -52q-8 -15 -17 -22t-26 -7h-26z" />
    <glyph glyph-name="udieresis" unicode="&#xfc;" horiz-adv-x="594" 
d="M56 468q0 42 42 42h43q42 0 42 -42v-260q0 -47 16 -75.5t63 -28.5q34 0 61 14t45 38t27.5 55t9.5 65v192q0 42 42 42h43q42 0 42 -42v-426q0 -42 -42 -42h-39q-41 0 -41 42v30v9t1 7q0 4 1 7h-2q-9 -20 -25.5 -39t-39.5 -34t-51 -24.5t-61 -9.5q-82 0 -129.5 45
t-47.5 149v286zM195 594q-42 0 -42 42v33q0 41 42 41h14q42 0 42 -41v-33q0 -42 -42 -42h-14zM378 594q-41 0 -41 42v33q0 41 41 41h15q41 0 41 -41v-33q0 -42 -41 -42h-15z" />
    <glyph glyph-name="yacute" unicode="&#xfd;" horiz-adv-x="514" 
d="M254 573q-22 0 -29 13.5t4 33.5l35 60q17 29 49 29h36q27 0 33 -15t-11 -35l-45 -61q-11 -13 -22.5 -19t-28.5 -6h-21zM24 -119q8 17 20 21.5t25 1.5q7 -3 16 -6t20 -3q28 0 49 20.5t32 47.5l19 45l-194 453q-10 22 -1 35.5t33 13.5h54q35 0 47 -34l96 -260
q3 -11 6.5 -22.5t6.5 -22.5q4 -12 6 -24h2q2 12 5 23q2 10 5.5 21.5t6.5 22.5l90 261q10 35 47 35h50q23 0 32.5 -13t1.5 -35l-210 -538q-13 -35 -33 -60t-44 -41.5t-51.5 -24.5t-55.5 -8q-21 0 -39 5t-32 10q-18 7 -22.5 22t3.5 32z" />
    <glyph glyph-name="thorn" unicode="&#xfe;" horiz-adv-x="603" 
d="M187 254q0 -75 35.5 -117t93.5 -42q28 0 51 12t39.5 33t26 50.5t9.5 64.5q0 34 -9 63.5t-25.5 50.5t-39 33t-50.5 12q-26 0 -50 -8.5t-42 -27.5t-28.5 -49.5t-10.5 -74.5zM64 668q0 42 42 42h43q42 0 42 -42v-176q0 -10 -0.5 -17.5t-0.5 -12.5q-1 -6 -1 -12h2
q7 8 19 20.5t30 24t43 19.5t58 8q52 0 94.5 -20t72.5 -56t46 -85t16 -106q0 -58 -17 -107t-47.5 -84.5t-73 -55.5t-93.5 -20q-42 0 -70 10.5t-45 23.5q-20 15 -33 35h-2q0 -5 1 -12q0 -6 0.5 -14t0.5 -18v-171q0 -42 -42 -42h-43q-42 0 -42 42v826z" />
    <glyph glyph-name="ydieresis" unicode="&#xff;" horiz-adv-x="514" 
d="M161 593q-42 0 -42 42v33q0 41 42 41h14q42 0 42 -41v-33q0 -42 -42 -42h-14zM344 593q-41 0 -41 42v33q0 41 41 41h15q41 0 41 -41v-33q0 -42 -41 -42h-15zM24 -119q8 17 20 21.5t25 1.5q7 -3 16 -6t20 -3q28 0 49 20.5t32 47.5l19 45l-194 453q-10 22 -1 35.5t33 13.5
h54q35 0 47 -34l96 -260q3 -11 6.5 -22.5t6.5 -22.5q4 -12 6 -24h2q2 12 5 23q2 10 5.5 21.5t6.5 22.5l90 261q10 35 47 35h50q23 0 32.5 -13t1.5 -35l-210 -538q-13 -35 -33 -60t-44 -41.5t-51.5 -24.5t-55.5 -8q-21 0 -39 5t-32 10q-18 7 -22.5 22t3.5 32z" />
    <glyph glyph-name="OE" unicode="&#x152;" horiz-adv-x="958" 
d="M171 356q0 -53 18 -99.5t50 -81t76 -54t96 -19.5q15 0 28 1t23 3q11 2 20 4v490q-9 2 -20 4q-10 2 -23 3t-28 1q-52 0 -96 -19.5t-76 -54t-50 -80.5t-18 -98zM38 356q0 76 28.5 142.5t79 115t118.5 76.5t147 28q42 0 69.5 -4t56.5 -4h328q42 0 42 -42v-28q0 -41 -42 -41
h-255v-186h198q42 0 42 -41v-28q0 -42 -42 -42h-198v-191h272q41 0 41 -41v-28q0 -42 -41 -42h-345q-14 0 -27.5 -1.5t-28.5 -3t-32 -3t-38 -1.5q-79 0 -147 28.5t-118.5 77.5t-79 115.5t-28.5 143.5z" />
    <glyph glyph-name="oe" unicode="&#x153;" horiz-adv-x="977" 
d="M159 254q0 -36 12 -65.5t33 -50t48.5 -31.5t58.5 -11t58.5 11t48 31.5t32.5 50t12 66.5q0 36 -12 65.5t-33 50.5t-48.5 32t-57.5 11q-31 0 -58.5 -11.5t-48.5 -32.5t-33 -50.5t-12 -65.5zM819 313q-2 51 -29.5 81t-69.5 30q-50 0 -82.5 -30.5t-41.5 -80.5h223zM31 254
q0 60 21.5 109.5t59 84.5t88 54.5t107.5 19.5q75 0 126 -28.5t85 -76.5h2q30 48 78.5 76.5t122.5 28.5q54 0 96.5 -18.5t71 -50.5t43.5 -77t15 -97q0 -17 -12 -30t-32 -13h-310q8 -69 51.5 -104.5t100.5 -35.5q35 0 63.5 11t47.5 22q37 19 56 -14l11 -20q19 -37 -14 -56
q-24 -16 -68.5 -33.5t-104.5 -17.5q-80 0 -131 30t-82 78h-2q-34 -48 -86 -78t-128 -30q-57 0 -107.5 19t-88 53.5t-59 84t-21.5 109.5z" />
    <glyph glyph-name="Scaron" unicode="&#x160;" horiz-adv-x="549" 
d="M57 60q-12 11 -16.5 24.5t10.5 33.5l22 32q12 17 25.5 18.5t32.5 -9.5l22.5 -15t32 -17t41 -14t48.5 -6q50 0 78 22.5t28 58.5q0 34 -24.5 56t-61.5 40t-79.5 36t-79.5 43t-61.5 61.5t-24.5 91.5q0 47 18.5 85t50.5 65t75.5 41.5t94.5 14.5q31 0 59.5 -5.5t52 -13.5
t42 -17.5t29.5 -17.5q32 -23 13 -57l-18 -33q-11 -22 -26 -22t-31 8q-22 13 -51.5 26t-71.5 13q-50 0 -79 -22t-29 -58q0 -33 24.5 -54.5t61.5 -38.5t79.5 -34.5t79.5 -42.5t61.5 -62t24.5 -93q0 -43 -16 -81.5t-46 -67t-73.5 -45t-99.5 -16.5q-38 0 -72 7.5t-62 18.5
t-49.5 23.5t-34.5 22.5zM244 757q-33 0 -51 27l-40 59q-14 21 -9 35.5t27 14.5h26q17 0 26 -6.5t17 -21.5l34 -53h2l33 53q9 15 17.5 21.5t26.5 6.5h26q22 0 27 -14.5t-9 -35.5l-40 -59q-18 -27 -51 -27h-62z" />
    <glyph glyph-name="scaron" unicode="&#x161;" horiz-adv-x="447" 
d="M51 40q-17 10 -19 25t9 32l12 18q11 16 24.5 18t32.5 -8q18 -10 46.5 -22.5t67.5 -12.5q33 0 52 14t19 38q0 21 -18.5 33.5t-47 23t-61 22.5t-61 30t-47 46t-18.5 72q0 37 15.5 66t42 48t62 29t75.5 10q51 0 86.5 -13t55.5 -24q17 -9 20 -24t-5 -32l-10 -18
q-9 -18 -23 -21t-33 5q-17 8 -41 16.5t-56 8.5q-33 0 -51 -13t-18 -37q0 -21 18.5 -33.5t47 -23t61 -22t61 -29.5t47 -46t18.5 -71q0 -34 -13.5 -62.5t-39 -49.5t-61.5 -33t-80 -12q-62 0 -104.5 18t-65.5 34zM191 574q-33 0 -51 27l-40 59q-14 21 -9 35.5t27 14.5h26
q17 0 26 -6.5t17 -21.5l34 -53h2l33 53q9 15 17.5 21.5t26.5 6.5h26q22 0 27 -14.5t-9 -35.5l-40 -59q-18 -27 -51 -27h-62z" />
    <glyph glyph-name="Ydieresis" unicode="&#x178;" horiz-adv-x="580" 
d="M190 777q-42 0 -42 42v33q0 41 42 41h14q42 0 42 -41v-33q0 -42 -42 -42h-14zM373 777q-41 0 -41 42v33q0 41 41 41h15q41 0 41 -41v-33q0 -42 -41 -42h-15zM226 297l-208 363q-13 21 -4.5 35.5t32.5 14.5h56q33 0 48 -31l96 -178q8 -17 16 -33.5t14 -30.5q7 -16 13 -31
h2q6 15 13 31q6 14 14 30.5t16 33.5l96 178q15 31 48 31h56q25 0 33 -14.5t-4 -35.5l-209 -363v-255q0 -42 -41 -42h-45q-42 0 -42 42v255z" />
    <glyph glyph-name="Zcaron" unicode="&#x17d;" horiz-adv-x="601" 
d="M31 54q0 29 17 53l298 428q23 32 36 47q8 10 16 17v2q-6 -1 -14 -1q-7 -1 -17 -1h-22h-256q-42 0 -42 41v28q0 42 42 42h430q41 0 41 -41v-12q0 -16 -3.5 -28t-12.5 -25l-299 -429q-11 -16 -20.5 -27.5t-16.5 -19.5q-9 -10 -15 -17v-2q6 0 14 1q7 0 16.5 0.5t22.5 0.5
h277q42 0 42 -41v-28q0 -42 -42 -42h-450q-42 0 -42 42v12zM280 757q-33 0 -51 27l-40 59q-14 21 -9 35.5t27 14.5h26q17 0 26 -6.5t17 -21.5l34 -53h2l33 53q9 15 17.5 21.5t26.5 6.5h26q22 0 27 -14.5t-9 -35.5l-40 -59q-18 -27 -51 -27h-62z" />
    <glyph glyph-name="zcaron" unicode="&#x17e;" horiz-adv-x="510" 
d="M28 44q0 16 4 25.5t14 21.5l211 264q9 11 16.5 19.5t13.5 14.5l13 13v2q-4 -1 -11 -1q-6 -1 -15 -1h-21h-173q-42 0 -42 42v24q0 42 42 42h350q42 0 42 -34v-10q0 -16 -4 -25.5t-14 -21.5l-211 -265q-9 -11 -17 -19.5t-14 -14.5l-13 -13v-2q5 0 12 1q6 1 14.5 1.5
t21.5 0.5h190q42 0 42 -42v-24q0 -42 -42 -42h-367q-42 0 -42 34v10zM219 574q-33 0 -51 27l-40 59q-14 21 -9 35.5t27 14.5h26q17 0 26 -6.5t17 -21.5l34 -53h2l33 53q9 15 17.5 21.5t26.5 6.5h26q22 0 27 -14.5t-9 -35.5l-40 -59q-18 -27 -51 -27h-62z" />
    <glyph glyph-name="florin" unicode="&#x192;" horiz-adv-x="403" 
d="M-8 -7q7 0 14 -0.5t15 -0.5q13 0 30.5 3t33 12.5t27.5 28t15 48.5l21 250h-32q-42 0 -42 42v17q0 42 42 42h41l9 97q6 63 32 100.5t59.5 57.5t70 26t63.5 6q12 0 24 -1t23 -2q39 -5 39 -44v-25q0 -44 -31 -41q-11 2 -24 3t-23 1q-14 0 -31.5 -3t-33 -13t-27.5 -28.5
t-15 -48.5l-8 -85h67q41 0 41 -42v-17q0 -42 -40 -42h-77l-23 -262q-6 -63 -31.5 -100.5t-59 -57t-69.5 -25.5t-63 -6q-10 0 -19 0.5t-17 1.5q-39 3 -39 44v25q0 44 38 39z" />
    <glyph glyph-name="circumflex" unicode="&#x2c6;" horiz-adv-x="494" 
d="M143 757q-22 0 -27 14.5t9 36.5l40 58q18 27 51 27h62q33 0 51 -27l40 -58q14 -22 9 -36.5t-27 -14.5h-26q-18 0 -26.5 7t-17.5 22l-33 52h-2l-34 -52q-8 -15 -17 -22t-26 -7h-26z" />
    <glyph glyph-name="tilde" unicode="&#x2dc;" horiz-adv-x="493" 
d="M105 758q-36 0 -36 38q0 20 7.5 38t20.5 31.5t31.5 21.5t41.5 8q28 0 47 -10t34 -22.5t27.5 -22.5t28.5 -10q17 0 25 11t10 28q2 23 36 23h10q37 0 37 -34q0 -46 -28 -74.5t-73 -28.5q-29 0 -48 10t-33.5 22.5t-27 22.5t-28.5 10q-17 0 -26.5 -11.5t-11.5 -28.5
q-3 -22 -34 -22h-10z" />
    <glyph glyph-name="endash" unicode="&#x2013;" horiz-adv-x="671" 
d="M100 236q-41 0 -41 42v15q0 42 41 42h471q41 0 41 -42v-15q0 -42 -41 -42h-471z" />
    <glyph glyph-name="emdash" unicode="&#x2014;" horiz-adv-x="871" 
d="M100 236q-41 0 -41 42v15q0 42 41 42h671q41 0 41 -42v-15q0 -42 -41 -42h-671z" />
    <glyph glyph-name="quoteleft" unicode="&#x2018;" horiz-adv-x="217" 
d="M74 490q-23 0 -32.5 12.5t-1.5 34.5l50 152q13 33 48 33h10q23 0 31 -12t3 -33l-34 -150q-7 -37 -45 -37h-29z" />
    <glyph glyph-name="quoteright" unicode="&#x2019;" horiz-adv-x="215" 
d="M76 490q-23 0 -31 12t-3 33l34 150q7 37 45 37h28q23 0 32.5 -12.5t2.5 -34.5l-51 -152q-12 -33 -47 -33h-10z" />
    <glyph glyph-name="quotesinglbase" unicode="&#x201a;" horiz-adv-x="231" 
d="M67 92q7 37 45 37h29q23 0 32.5 -13t1.5 -35l-50 -151q-13 -33 -48 -33h-10q-23 0 -31 12t-3 33z" />
    <glyph glyph-name="quotedblleft" unicode="&#x201c;" horiz-adv-x="384" 
d="M74 490q-23 0 -32.5 12.5t-1.5 34.5l50 152q13 33 48 33h11q22 0 30 -12t4 -33l-34 -150q-9 -37 -45 -37h-30zM241 490q-23 0 -32.5 12.5t-1.5 34.5l50 152q13 33 48 33h11q22 0 30 -12t3 -33l-33 -150q-9 -37 -46 -37h-29z" />
    <glyph glyph-name="quotedblright" unicode="&#x201d;" horiz-adv-x="382" 
d="M76 490q-23 0 -31 12t-3 33l34 150q7 37 45 37h29q23 0 32.5 -12.5t1.5 -34.5l-50 -152q-12 -33 -48 -33h-10zM243 490q-23 0 -31 12t-3 33l34 150q7 37 45 37h29q23 0 32.5 -12.5t1.5 -34.5l-50 -152q-12 -33 -48 -33h-10z" />
    <glyph glyph-name="quotedblbase" unicode="&#x201e;" horiz-adv-x="398" 
d="M67 92q7 37 45 37h29q23 0 32.5 -13t1.5 -35l-50 -151q-11 -33 -47 -33h-11q-23 0 -31 12t-3 33zM234 92q7 37 45 37h29q23 0 32.5 -13t1.5 -35l-50 -151q-11 -33 -47 -33h-11q-23 0 -31 12t-3 33z" />
    <glyph glyph-name="dagger" unicode="&#x2020;" horiz-adv-x="447" 
d="M162 411h-83q-42 0 -42 42v15q0 42 42 42h83v158q0 42 41 42h39q41 0 41 -42v-158h86q41 0 41 -42v-15q0 -42 -41 -42h-86v-419q0 -42 -41 -42h-39q-41 0 -41 42v419z" />
    <glyph glyph-name="daggerdbl" unicode="&#x2021;" horiz-adv-x="460" 
d="M168 163h-83q-41 0 -41 41v15q0 42 41 42h83v150h-83q-41 0 -41 42v15q0 42 41 42h83v158q0 42 42 42h38q42 0 42 -42v-158h85q41 0 41 -42v-15q0 -42 -41 -42h-85v-150h85q41 0 41 -42v-15q0 -41 -41 -41h-85v-171q0 -42 -42 -42h-38q-42 0 -42 42v171z" />
    <glyph glyph-name="bullet" unicode="&#x2022;" horiz-adv-x="426" 
d="M213 124q-35 0 -65 13t-53 36t-36 53t-13 65q0 34 13 64.5t36 53.5t53 36t65 13q34 0 64.5 -13t53.5 -36t36 -53.5t13 -64.5q0 -35 -13 -65t-36 -53t-53.5 -36t-64.5 -13z" />
    <glyph glyph-name="ellipsis" unicode="&#x2026;" horiz-adv-x="803" 
d="M55 87q0 41 42 41h40q42 0 42 -41v-45q0 -42 -42 -42h-40q-42 0 -42 42v45zM340 87q0 41 41 41h41q42 0 42 -41v-45q0 -42 -42 -42h-41q-41 0 -41 42v45zM625 87q0 41 41 41h41q41 0 41 -41v-45q0 -42 -41 -42h-41q-41 0 -41 42v45z" />
    <glyph glyph-name="perthousand" unicode="&#x2030;" horiz-adv-x="1160" 
d="M527 146q0 -28 19 -47t47 -19t47.5 19t19.5 47q0 27 -19.5 46.5t-47.5 19.5t-47 -19.5t-19 -46.5zM900 146q0 -28 19 -47t47 -19t47.5 19t19.5 47q0 27 -19.5 46.5t-47.5 19.5t-47 -19.5t-19 -46.5zM430 145q0 32 12.5 61t34.5 50.5t52 34t64 12.5t63.5 -12.5t51.5 -34
t35 -50.5t13 -61q0 -33 -13 -61.5t-35 -49.5t-51.5 -33.5t-63.5 -12.5t-64 12.5t-52 33.5t-34.5 49.5t-12.5 61.5zM803 145q0 32 12.5 61t34.5 50.5t52 34t64 12.5t63.5 -12.5t51.5 -34t35 -50.5t13 -61q0 -33 -13 -61.5t-35 -49.5t-51.5 -33.5t-63.5 -12.5t-64 12.5
t-52 33.5t-34.5 49.5t-12.5 61.5zM205 498q28 0 47.5 19t19.5 47q0 27 -19.5 46.5t-47.5 19.5t-47 -19.5t-19 -46.5q0 -28 19 -47t47 -19zM593 685q19 25 51 25h20q27 0 34.5 -15t-9.5 -36l-486 -634q-19 -25 -51 -25h-21q-26 0 -33.5 15t9.5 36zM205 406q-34 0 -64 12.5
t-52 33.5t-34.5 50t-12.5 62q0 32 12.5 61t34.5 50.5t52 34t64 12.5t63.5 -12.5t51.5 -34t35 -50.5t13 -61q0 -33 -13 -62t-35 -50t-51.5 -33.5t-63.5 -12.5z" />
    <glyph glyph-name="guilsinglleft" unicode="&#x2039;" horiz-adv-x="329" 
d="M49 253q-24 29 0 58l121 153q11 12 22.5 18t28.5 6h25q26 0 33.5 -15t-9.5 -36l-123 -155l123 -154q17 -21 11 -36t-31 -15h-29q-17 0 -28.5 6t-22.5 18z" />
    <glyph glyph-name="guilsinglright" unicode="&#x203a;" horiz-adv-x="329" 
d="M83 77q-26 0 -33.5 15t9.5 36l123 154l-123 155q-17 21 -11 36t31 15h29q17 0 28.5 -6t22.5 -18l121 -153q24 -29 0 -58l-121 -152q-11 -12 -22.5 -18t-28.5 -6h-25z" />
    <glyph glyph-name="Euro" unicode="&#x20ac;" horiz-adv-x="603" 
d="M75 250q-22 0 -30 9.5t-8 28.5t8 28.5t30 9.5h18q-2 12 -2.5 29.5t1.5 32.5h-16q-21 0 -30 10t-9 29t8.5 28.5t30.5 9.5h30q16 56 48.5 103.5t77 81.5t99.5 53t117 19q18 0 34.5 -1.5t29.5 -3.5q21 -3 29 -16.5t3 -33.5l-10 -37q-10 -37 -42 -32q-9 2 -21.5 3t-25.5 1
q-72 0 -125 -37t-76 -100h208q25 0 34 -9.5t5 -29.5t-14 -29t-32 -9h-219q-5 -30 0 -62h199q47 0 39 -39q-5 -20 -14.5 -28.5t-31.5 -8.5h-169q24 -64 77.5 -102t123.5 -38q15 0 28 1t24 3q20 3 32.5 -4t15.5 -27l8 -38q4 -19 -4 -32t-28 -17q-14 -3 -34.5 -5.5t-43.5 -2.5
q-65 0 -120.5 19t-99.5 53.5t-75.5 83t-46.5 106.5h-31z" />
    <glyph glyph-name="trademark" unicode="&#x2122;" horiz-adv-x="977" 
d="M229 267q-42 0 -42 41v318h-107q-41 0 -41 39v6q0 39 41 39h308q42 0 42 -39v-6q0 -39 -42 -39h-106v-318q0 -41 -41 -41h-12zM489 670q3 40 43 40h14q35 0 48 -32l78 -177q2 -7 4.5 -14t4.5 -13q2 -7 4 -15h2q1 8 4 15q2 6 4.5 13t5.5 14l78 177q13 32 48 32h14
q40 0 43 -40l28 -360q2 -43 -40 -43h-13q-39 0 -42 40l-14 188q-1 5 -0.5 10.5t0.5 10.5t1 10h-2l-65 -146q-13 -32 -48 -32h-6q-34 0 -47 32l-65 146h-2q1 -5 1 -10v-21l-15 -188q-3 -40 -43 -40h-12q-43 0 -40 43z" />
    <glyph glyph-name="glyph217" horiz-adv-x="0" 
 />
    </font>
</defs>
</svg>
